<?xml version="1.0" encoding="UTF-8" standalone="no"?>
<svg
   xmlns:dc="http://purl.org/dc/elements/1.1/"
   xmlns:cc="http://creativecommons.org/ns#"
   xmlns:rdf="http://www.w3.org/1999/02/22-rdf-syntax-ns#"
   xmlns:svg="http://www.w3.org/2000/svg"
   xmlns="http://www.w3.org/2000/svg"
   xmlns:sodipodi="http://sodipodi.sourceforge.net/DTD/sodipodi-0.dtd"
   xmlns:inkscape="http://www.inkscape.org/namespaces/inkscape"
   version="1.1"
   id="svg2"
   width="586"
   height="873"
   viewBox="0 0 586 873"
   sodipodi:docname="canton2.svg"
   inkscape:version="1.0.2 (e86c870879, 2021-01-15)">
  <metadata
     id="metadata8">
    <rdf:RDF>
      <cc:Work
         rdf:about="">
        <dc:format>image/svg+xml</dc:format>
        <dc:type
           rdf:resource="http://purl.org/dc/dcmitype/StillImage" />
        <dc:title />
      </cc:Work>
    </rdf:RDF>
  </metadata>
  <defs
     id="defs6">
    <rect
       x="-214.63299"
       y="594.55571"
       width="149.24216"
       height="94.163847"
       id="rect1393" />
    <rect
       x="-328.52007"
       y="554.28497"
       width="50.186665"
       height="45.766024"
       id="rect1387" />
    <inkscape:perspective
       sodipodi:type="inkscape:persp3d"
       inkscape:vp_x="327.49108 : 336.16923 : 1"
       inkscape:vp_y="0 : 1000 : 0"
       inkscape:vp_z="913.49108 : 336.16923 : 1"
       inkscape:persp3d-origin="620.49108 : 190.66923 : 1"
       id="perspective1332" />
    <rect
       x="-263.20464"
       y="415.62733"
       width="392.96111"
       height="67.863283"
       id="rect1025" />
    <rect
       x="-106.51865"
       y="498.33749"
       width="56.314178"
       height="26.864549"
       id="rect942" />
    <rect
       x="-106.51865"
       y="498.33749"
       width="82.47129"
       height="24.605808"
       id="rect942-3" />
    <rect
       x="-106.51865"
       y="498.33749"
       width="56.314178"
       height="26.86455"
       id="rect955" />
    <rect
       x="-106.51865"
       y="498.33749"
       width="100.49117"
       height="21.470158"
       id="rect942-6" />
    <rect
       x="-106.51865"
       y="498.33749"
       width="56.314178"
       height="26.86455"
       id="rect955-2" />
    <rect
       x="-106.51865"
       y="498.33749"
       width="56.314178"
       height="26.86455"
       id="rect942-1" />
    <rect
       x="-106.51865"
       y="498.33749"
       width="56.314178"
       height="26.86455"
       id="rect955-27" />
    <rect
       x="-106.51865"
       y="498.33749"
       width="166.28609"
       height="45.685164"
       id="rect942-9" />
    <rect
       x="-106.51865"
       y="498.33749"
       width="56.314178"
       height="26.86455"
       id="rect955-3" />
    <rect
       x="-106.51865"
       y="498.33749"
       width="125.55402"
       height="69.075096"
       id="rect942-0" />
    <rect
       x="-106.51865"
       y="498.33749"
       width="56.314178"
       height="26.86455"
       id="rect1359" />
  </defs>
  <sodipodi:namedview
     pagecolor="#ffffff"
     bordercolor="#666666"
     borderopacity="1"
     objecttolerance="10"
     gridtolerance="10"
     guidetolerance="10"
     inkscape:pageopacity="0"
     inkscape:pageshadow="2"
     inkscape:window-width="1260"
     inkscape:window-height="743"
     id="namedview4"
     showgrid="false"
     showborder="false"
     inkscape:showpageshadow="false"
     inkscape:zoom="1.1546392"
     inkscape:cx="354.15907"
     inkscape:cy="229.67555"
     inkscape:window-x="0"
     inkscape:window-y="0"
     inkscape:window-maximized="1"
     inkscape:current-layer="g10"
     inkscape:document-rotation="0" />
  <g
     inkscape:groupmode="layer"
     inkscape:label="Image"
     id="g10">
    <g
       id="g1102">
      <path
         style="fill:none;stroke:#000000;stroke-width:2;stroke-linecap:butt;stroke-linejoin:round;stroke-miterlimit:4;stroke-dasharray:6, 2;stroke-dashoffset:0;stroke-opacity:1"
         d="m 60.065224,319.98079 7.879359,-8.91247 6.221654,-6.77195 3.179178,-1.83043 1.784287,-3.08729 h 3.267848 l 4.335632,1.22341 4.794338,2.03508 3.804488,0.76971 4.283564,1.30717 2.972388,0.86032 h 3.48789 l 0.2437,1.63259 -0.76367,2.27522 -2.09516,1.64884 0.27015,5.65481 1.01051,3.26891 1.64237,1.81048 0.17531,4.4508 -1.98825,3.54141 -1.93534,6.66804 0.65238,3.51118 1.32475,4.99355 v 4.08111 l 3.4969,5.4966 0.21652,3.95519 v 2.55227 l -1.29744,2.84887 0.0241,2.78411 2.25763,3.80102 2.72225,1.44195 3.08222,-1.0706 2.35464,-0.61945 3.03364,0.53039 2.7231,3.31527 4.08635,4.44147 3.00813,1.93869 4.56852,4.90578 0.34832,2.96743 v 4.80347 l 0.32848,4.11563 1.14092,2.14531 0.71603,2.87832 v 3.55123 l 2.32349,5.63945 2.42747,3.07391 2.235,3.47692 3.27921,2.82994 3.45074,2.86034 3.97596,3.33348 5.25577,3.64109 1.8788,3.45486 1.59869,2.69241 v 2.91289 l 2.82338,3.21353 1.98542,3.88148 1.78544,3.25438 2.29557,4.71365 1.07722,4.86682 0.88699,2.8071 1.16554,2.23811 2.55921,3.56109 4.62173,5.3748 2.97305,2.67631 3.54389,3.53097 3.45208,2.38769 5.13459,3.40414 3.03059,2.35787 4.13386,2.82345 3.22052,1.35909 6.05289,2.68762 4.3322,1.45683 84.81975,87.67256 1.60828,2.6631 0.54813,4.59233 0.0666,3.44285 -1.71884,5.34038 -0.78257,2.1143 -1.97191,1.7593 -1.28417,2.08989 -0.83678,3.74291 -0.0261,1.99065 0.27122,2.49724 2.09965,3.13346 2.70039,2.65841 3.26146,1.71355 4.24603,3.05225 1.99598,1.0159 3.32799,2.79043 1.80294,3.54201 3.95092,5.25892 1.78352,0.0569 3.94626,-1.79835 3.44717,-1.75958 4.15345,-0.98437 3.03388,-1.74274 3.54447,-2.68822 3.2731,-1.43755 2.672,-1.65123 h 2.57773 l 4.46521,0.83973 10.8839,5.95328 4.03121,0.43602 5.0255,2.01313 5.61922,1.53809 5.93675,-0.47596 4.23484,0.74456 5.25659,-2.40236 3.67393,-0.87543 4.72579,-2.16704 3.60787,-1.05289 2.31943,-1.76054 2.42793,2.28991 2.63563,3.51972 1.27484,4.5667 0.0412,2.95044 0.21543,4.37259 -0.21865,4.27439 -0.91473,4.08713 0.90819,3.0514 0.59749,10.73397 4.77973,-4.96736 1.77541,2.29829 3.20032,-3.35217 2.05283,-3.34577 3.11761,-3.97323 3.45952,-3.29144 5.02667,-4.46842 1.63086,-0.50537 4.39589,-4.75434 3.06189,-2.42664 2.54524,-1.54398 3.17595,1.58744 1.0143,3.16429 0.43321,2.06291 1.90416,0.91861 2.22488,-3.15317 2.61801,-3.01475 3.22614,-3.72993 2.64204,-2.43096 3.78625,-4.59875 0.40824,-2.53546 -0.28519,-2.71481 2.12984,-2.73954 1.77738,-2.98187 3.89963,-2.33376 3.43513,-1.90255 22.13977,-13.05146 3.20301,-3.63689 0.16258,-3.61076 3.5884,-3.26149 2.80068,-1.37601 4.10807,-1.97646 3.13107,-0.67931 4.7363,-2.00318 3.40589,-3.36699 5.31249,-3.49832"
         id="path14" />
      <path
         style="fill:none;stroke:#000000;stroke-width:2;stroke-linecap:butt;stroke-linejoin:miter;stroke-miterlimit:4;stroke-dasharray:2, 2;stroke-dashoffset:0;stroke-opacity:1"
         d="m 60.065224,319.98079 -2.104311,-3.47305 -1.88134,-3.04633 -1.699252,-2.67229 -2.55198,-3.34445 -2.887468,-3.54202 -1.984878,-3.29342 1.005456,-6.21441 -0.459379,-6.16162 -1.047114,-7.11808 -1.681104,-3.58266 -3.46257,-3.05827 -4.508918,-0.0355 -4.152703,2.90578 -2.387946,-5.12859 -1.894123,-2.99714 -3.892401,-1.99558 0.721773,-4.83295 0.898779,-3.80301 1.320517,-2.05922 0.437213,-3.10742 -0.995887,-1.59984 -3.399438,-1.44262 -2.814675,-1.81733 -2.765111,-3.92592 -1.031546,-4.75243 2.693158,-2.26936 3.928434,-3.2362 4.652693,-1.4342 3.65675,-0.25298 2.51135,-3.51863 1.10847,-4.68459 0.112359,-3.65935 -2.6398,-0.0605 -1.123534,-1.12618 -2.008762,-2.73483 -0.444072,-3.86276 2.11557,-4.44707 2.765896,-2.97493 3.461412,-3.05493 1.18089,-4.01557 1.675274,-3.5655 0.05786,-1.37692 -0.09711,-4.28945 0.737771,-5.73864 0.195862,-3.85134 0.258508,-2.50165 -1.289231,-1.27187 -0.116284,-3.50487 0.433569,-4.7069 1.753207,-2.03802 3.5514,-3.02646 1.090528,-4.73988 -0.595192,-2.80668 1.493541,-3.96064 2.536356,-4.02006 2.245067,-3.83053 3.774006,-3.93388 3.326196,-2.75217 2.498585,-5.19967 3.069295,-2.78594 2.075819,-5.38661 3.609859,-2.3732 3.837567,-2.88946 2.667273,0.32859 3.302349,-0.54099 4.153936,-0.22764 4.816242,-0.77607 5.735989,-2.39033 -0.204571,-4.56019 1.668414,-4.04957 3.935553,-3.82539 0.72647,3.02563 -0.22784,1.36489 3.62356,1.63826 3.5516,0.52033 2.37406,-3.51793 1.01307,-4.81778 1.83912,-3.504079 0.29891,-2.961478 -1.57696,-0.567467 -2.98649,-1.286362 2.42891,-1.369559 1.20248,-0.782479 2.06236,-0.120014 0.22651,-1.253013 1.4481,-0.643164 1.78072,-0.234596 2.32425,-1.006106 1.76867,-1.252035 3.32595,-0.678957 4.72344,-0.3811 2.9742,2.064333 2.44041,1.300317 2.73123,3.028118 2.89109,0.649395 1.18588,1.862583 -0.827,2.711033 0.46494,4.27689 -1.61747,2.75052 -1.66291,3.95397 -2.43447,1.93889 -2.523,2.43242 -1.41864,1.43926 1.71891,2.49916 3.04928,2.27201 1.94771,2.48124 -0.0959,3.01392 2.37323,1.00232 -0.53311,1.13508 2.34831,2.43406 -0.24044,2.26569 -0.10833,1.64934 -0.94441,1.15996 -1.37222,1.66866 1.22852,1.44911 2.29243,1.78473 2.25109,2.14238 2.06078,0.85319 2.50819,1.04104 2.29025,1.98432 1.22901,2.34925 0.36117,2.74477 -0.7715,2.49672 -1.74721,3.48058 0.30783,2.49351 1.20238,1.39205 0.63279,3.84757 -1.50593,2.60186 -2.6346,1.97149 -1.91381,2.4768 -1.89354,2.10974 -3.72407,3.56521 -1.83491,3.15005 -0.65777,5.19996 0.56696,4.78141 -0.60237,3.89407 -1.59521,5.32001 -0.44368,2.9734 -1.22033,2.54854 -2.06572,3.5697 -1.27167,3.54694 -0.81,3.55286 1.40527,2.32057 3.42979,1.67415 6.72602,7.19308 3.91679,4.24548 5.75747,1.71781 4.51919,1.36961 2.30478,0.25576 2.17508,2.96904 2.44898,3.7364 2.76955,1.70624 2.00668,3.08533 3.54167,-0.73428 1.23791,-3.56154 4.25095,-1.37648 v 5.3482 l 1.60633,2.94278 3.83667,0.91729 3.75756,-0.68478 3.44528,0.10474 3.47371,0.21247 4.21817,-0.19424 4.9157,-0.0379 4.63659,0.21867 1.87891,2.45549 2.98272,3.84915 -0.46543,2.58036 2.86654,0.88359 5.32632,0.63011 5.51802,0.43214 5.47466,1.64016 4.21856,1.7864 4.38572,1.10475 3.69331,1.43794 5.10897,0.84567 2.91283,2.53549 4.9574,1.96961 3.52955,1.77791 1.38342,1.48365 1.04472,3.01451 0.98144,4.32448 3.84499,3.90285 4.73719,-0.95994 6.90518,-2.15246 3.78434,0.105 4.41728,-1.81086 5.01624,-1.65882 5.25556,-1.22452 5.28837,2.14736 3.54119,2.81641 1.51773,4.01674 -0.767,4.42407 0.27499,4.78027 0.49545,4.36888 -0.65569,3.82376 1.53503,4.33581 -0.35915,3.36653 -0.1303,4.97497 2.16256,4.87472 v 3.80103 l 0.17618,3.51832 1.34789,4.94785 0.40973,5.20067 1.13598,3.31122 0.19832,5.57721 1.16236,4.90663 -0.56825,3.93658 1.40346,4.47277 -0.211,4.34166 1.39698,5.11737 0.20384,4.18919 0.68013,5.13383 0.30621,3.47105 0.83919,4.88656 0.11475,4.16445 0.25847,4.27829 2.60986,4.60108 3.96793,4.4466 1.12748,2.89582 3.25172,3.30733 3.06124,2.7196 2.57184,2.96552 2.66873,3.47264 1.99712,3.34838 1.16239,2.55235 0.76379,3.89803 -0.29824,4.60507 -0.91147,4.31816 0.99957,5.03896 1.85717,4.40256 2.47513,2.21964 3.88368,2.87646 3.03432,2.6766 3.07745,2.00718 -0.88854,2.58441 2.3133,3.85558 4.94202,1.0152 3.96753,0.97681 4.4605,1.55739 5.519,1.96452 3.86712,1.29888 4.93456,1.45661 3.35393,2.36927 4.48193,2.95341 5.88958,-0.068 5.33412,0.6124 5.53063,0.45975 5.71919,0.19543 4.60051,-0.62952 5.10738,-1.17156 5.59894,-1.852 5.92111,-1.9393 4.4661,-2.35742 2.45192,3.12846 -1.49611,3.90406 -1.90855,3.34244 -2.18313,4.24949 -0.71159,3.8765 1.48725,2.93767 0.56123,4.07565 3.37198,2.94942 4.36174,1.86908 3.41708,0.62182 1.05613,3.77354 1.41082,3.52098 4.3484,1.26506 3.83822,1.39016 4.69695,2.93988 5.00784,0.849 4.92,3.31939 3.21846,2.86469 2.32978,3.92172 4.02534,2.04313 1.3002,5.74245 -1.20717,4.75183 -0.82295,4.91806 -1.0605,4.67904 -1.36154,6.4792 0.49653,5.30706 0.0146,4.85618 1.37044,5.95508 2.496,3.17289 3.23892,3.23914 0.978,3.43526 0.87676,4.59166 5.06973,4.4932 4.719,2.75517 6.96674,1.21544"
         id="path875" />
      <path
         style="fill:none;stroke:#0000ff;stroke-width:1.5;stroke-linecap:butt;stroke-linejoin:round;stroke-miterlimit:4;stroke-dasharray:none;stroke-opacity:1"
         d="m 144.11087,282.94771 3.15489,-7.45207 2.86059,-4.99432 -0.51806,-7.51969 0.13271,-5.41689 -0.8204,-3.7723 -2.86405,-4.88974 -1.44794,-5.66147 v -5.96525 l -1.23351,-3.87655 -3.42099,-3.21441 -4.92776,-3.38878 -1.2962,-3.12595 -2.23972,-4.73385 -0.0208,-5.63105 0.3062,-2.52925 0.84802,-1.71072 0.29166,-2.00467 0.99467,-1.99182 1.00818,-1.68997 1.37369,-1.97133 0.87522,-1.16391 0.67458,-2.08612 0.0935,-2.17075 -0.36729,-1.9369 -1.09654,-2.46219 -1.24702,-1.67154 -0.48417,-3.75035 1.12828,-1.22672 1.24124,-1.91309 0.37679,-1.07146 0.97174,-2.51766 -0.0629,-2.55127 0.10464,-2.88385 0.71792,-1.73627 2.02926,-0.71637 2.14001,-1.15871 2.25893,-0.53306 1.12491,-0.48438 3.65528,1.44277 0.10544,-1.07269 -0.21401,-4.36091 -1.12705,-0.95563 -1.70083,-0.36385 -1.88281,-1.24843 -1.08918,-1.57742 -0.35378,-1.53529 0.14395,-2.09809 1.4597,-1.25751 1.99901,0.13971 2.05382,0.0642 1.71738,0.38389 0.65617,-0.84981 -0.52082,-1.3592 -0.21651,-1.51722 -0.68204,-1.52672 -0.86665,-0.78767 -1.52566,-0.29115 -1.31747,-0.18794 -2.74738,-0.86986 -0.59852,-1.50901 -0.10826,-1.40992 -0.97165,-2.53953 -0.29577,-0.95606 -1.34248,-1.21999 -1.07801,-1.06824 -1.28805,-1.24976 -1.89911,-0.17312 -2.80841,0.3232 -1.14642,1.20057 -2.44591,1.26451 -1.35551,0.86636 -1.4245,0.31653 -1.29171,0.0767 -1.24652,-0.62785 -1.14939,-1.3007 -0.0962,-1.22344 1.81326,-0.57813 2.16224,-0.48675 1.76567,-0.9445 2.82897,-0.86011 1.79236,-1.26597 2.25427,-1.27958 2.11098,-1.54546 0.97623,-0.93049 1.52208,-1.48125 -0.45388,-2.93841 -0.94919,-2.13567 -0.88088,-1.62086 -1.45443,-1.51226 -0.94348,-1.44484 -1.7935,-1.04796 -0.78889,-1.32649 -1.3539,-2.35616 -0.78941,-1.56923 -0.55322,-1.54569 -0.64645,-1.35947 0.52565,-1.58468 1.25221,-0.32854 1.69798,-1.80592 1.79055,-1.43072 1.77582,-1.47334 1.28674,-1.29698 0.77316,-2.31362 -0.0592,-1.72146 0.10002,-1.672583 -0.21629,-1.96404 -0.029,-0.982286 -0.84898,-3.06151 -3.28759,-0.597664 -2.48351,-0.412731 -2.82142,0.155847 -2.69552,0.0058 -2.18476,0.34273 -2.28949,0.735185 -1.91398,0.207422 -2.01698,0.20813 -0.35954,-0.710664 -0.20743,-1.2969 1.11439,-0.641083 1.88857,-0.770179 1.08508,-0.214988 1.65715,0.118114 2.22045,-0.03259 1.97142,-0.245575 1.63054,0.07539 2.93874,0.07887 1.31033,-0.400959 -0.19321,-0.883509 -1.79741,-0.81517 -1.38301,-0.900285 -2.07298,-0.448085 -1.82603,0.678099 -2.35888,0.319362 -2.09776,0.979666 -2.73353,0.986029 -1.3866,0.774311 -1.3223,0.762524 -1.47619,1.435964 -1.53563,0.394351 v 0"
         id="path877"
         sodipodi:nodetypes="ccccccccccccccccccccccccccccccccccccccccccccccccccccccccccccccccccccccccccccccccccccccccccccccccccccccccccccccccccccccccccccccccccccccccccccc" />
      <path
         style="fill:none;stroke:#000000;stroke-width:1;stroke-linecap:butt;stroke-linejoin:miter;stroke-miterlimit:4;stroke-dasharray:none;stroke-opacity:1"
         d="m 114.21422,93.706253 3.69253,0.89502 5.04794,0.06236 1.59169,-0.981884 2.6115,-0.12581 3.59727,-0.15597 3.98415,0.06396 2.51225,0.791414"
         id="path879" />
      <path
         style="fill:none;stroke:#000000;stroke-width:1px;stroke-linecap:butt;stroke-linejoin:round;stroke-opacity:1"
         d="m 122.95469,94.663633 0.3262,1.974327 -0.9291,1.637905 -0.73559,1.310284 -0.37348,1.339911 0.14969,1.74616 0.28956,2.34814 0.7295,0.84649 1.31966,1.65882 1.04689,1.37218 1.02508,1.63746 1.34657,1.61046 0.75332,1.40007 1.14486,1.64015 0.55912,1.35374 0.87146,1.49243 0.0601,2.03449 0.79041,1.88867 0.65067,1.02178 1.2887,1.693 0.96442,1.12369 1.03282,1.23564 1.15091,1.66593 -0.058,1.56629 -1.33826,1.90513 -1.3933,1.13952 -1.67232,0.8926 -1.73585,0.91861 -1.24079,0.45254 -1.88764,0.29035 -3.01725,1.08857 -2.03025,1.26474 -1.9227,1.45099 -1.17788,1.35576 -0.7891,1.79182 1.09936,1.296 0.98747,1.10622 0.95224,0.55363 0.7519,0.94934 1.0763,0.3996 1.00603,1.1937 0.44216,1.40664 -0.001,2.30777 -0.20052,2.71236 0.12374,5.59136 0.085,6.1382 0.0874,5.97026 -0.41623,4.01325 0.0769,3.67015 -0.0504,3.39089 0.21678,3.93145 0.40768,3.80032 0.19013,2.41508 0.33061,3.10955 0.86613,2.40381 0.33364,1.58039 -0.27857,2.69492 0.28892,3.08826 -0.0271,3.70936 -0.14296,2.61864 -0.93526,2.82946 -0.33278,3.01651 -0.59506,1.53464 -0.17319,5.1863 -0.5808,2.59898 -0.90707,3.48778 -0.12049,2.41558 -0.56486,2.29532 -0.91885,1.1481 0.22038,2.63705 1.13948,1.27368 0.28951,3.9133 0.90648,1.6011 0.97121,1.33152 0.3842,1.84802 1.55653,0.92861 1.45217,0.37283 h 1.76569 l 3.33742,-0.49724 1.8268,0.74275 1.58094,1.36027 0.47687,1.50117 1.35061,1.38267 0.78638,2.46115 v 1.46384 l 0.3405,2.09213 0.30907,2.03639 0.59208,2.79783 0.30621,3.24982 -0.17766,3.39964 0.23354,3.52459 0.0337,2.72691 -0.0294,3.28256 0.3362,2.73661 1.21387,2.43036 0.35614,2.33408 -1.08839,1.89137 -2.27183,2.17843 -1.17376,2.43262 -0.54465,2.81189 0.79257,2.54429 0.78824,2.32431 1.38964,2.78669 0.9688,2.67166 1.51174,3.18079 v 2.0145 l 0.87647,4.02085 -0.5172,3.07662 -0.58824,5.3246 -0.8286,1.91044 0.44001,3.89502 -1.97477,1.31933 -0.13326,3.98815 -0.26174,3.63087 -0.66398,2.48025 v 2.65507 l -0.21661,3.41735 -0.0441,3.35525 0.91005,1.82064 1.5971,2.88928 1.24283,4.18464 1.51679,1.97851 0.64956,2.53247 0.67785,3.73114 -0.5809,4.34142 -1.08009,2.37674 0.19486,3.0995 1.60232,1.98716 0.75047,1.87917 2.3806,1.46215 1.24651,2.78208 1.91401,2.06017 1.40913,2.39547 4.62225,5.61975 2.43203,1.43937 2.45654,2.22731 1.64016,1.79743 2.57625,1.74217 7.88266,7.92876 -0.56726,1.03813 1.76641,1.3102 1.95334,-0.26348 1.45827,-1.53961 1.14654,-0.94361 0.495,-0.64973 2.00596,0.57854 -0.75426,2.05237 0.75184,1.45904 1.73439,1.70091 1.32024,1.60179 -0.19202,1.58756 -0.98461,1.76892 -0.1153,1.26724 -0.79802,1.16681 v 2.1741 l 1.38789,1.52495 1.56616,1.38346 1.84718,0.0601 2.57912,-0.58532 0.84848,-0.5634 2.69563,1.10259 1.27393,1.05355 1.73044,-1.22774 1.5915,-1.46697 1.37963,-1.57651 h 1.84955 l 1.8853,2.55669 2.37528,0.93867 2.48599,0.43011 4.7704,3.48336 2.35891,3.32456 6.15408,3.19862 1.71282,-0.83048 2.26741,0.34378 2.9714,2.27277 0.97197,2.17953 4.07142,4.08254 0.15919,1.55084 3.87699,0.93306 0.32586,1.90079 -0.19812,2.1861 1.92095,1.75339 1.86283,2.09564 1.07911,1.59079 0.21652,2.82424 0.16167,1.43611 -0.51913,2.41746 0.13856,1.9338 0.26293,1.93972 -0.5199,1.09956 -1.943,0.43833 -1.68585,1.09825 0.32935,1.64343 1.46492,1.23871 1.45125,0.75056 -1.52534,1.10882 -2.10231,0.44845 -1.67728,1.00594 -1.37431,1.02741 -0.0824,2.22922 0.62502,1.91161 -0.38622,1.6009 -0.83767,1.2572 -1.97492,1.29711 -2.51445,1.08443 -2.13205,0.88065 -3.10621,1.44692 h -2.2759 l -2.0513,-0.70213 -2.71396,-0.19237 -0.69185,6.05383 -0.002,2.72939"
         id="path881" />
      <path
         style="fill:none;stroke:#000000;stroke-width:1px;stroke-linecap:butt;stroke-linejoin:round;stroke-opacity:1"
         d="m 163.84804,439.80952 1.27535,-5.61171 -0.9883,-1.36984 -0.62508,-2.32825 -0.43182,-2.06389 1.29919,-1.72897 1.01337,-2.04855 -0.19231,-1.20177 0.43304,-2.06928 -1.96738,-1.53987 -1.58501,-1.00727 -0.84641,-3.13614 -0.96329,-3.7318 0.0935,-1.93757 -0.92189,-2.38501 -0.51791,-1.72763 -0.17067,-2.69652 -0.72563,-1.60424 -1.94955,-4.8261"
         id="path883" />
      <path
         style="fill:none;stroke:#000000;stroke-width:1px;stroke-linecap:butt;stroke-linejoin:round;stroke-opacity:1"
         d="m 357.8357,459.94348 -0.10863,2.68223 0.0458,2.07342 -0.65999,1.4234 -1.02693,2.30841 -0.69845,1.52749 -0.62596,1.68803 -0.43304,2.94373 -0.21527,2.7857 0.90698,3.03988 1.47462,1.56439 1.23207,2.10939 0.28085,2.77965 0.65074,2.36779 0.74585,2.43095 0.40876,2.85659 -0.21652,2.84035 -0.40245,2.33214 0.33052,2.57558 1.07833,2.42047 0.41326,2.1602 1.73368,2.1992 0.88634,1.513 0.15373,2.50478 1.18915,1.47418 0.55763,2.22174 v 2.78776 l 1.33132,1.49496 v 2.3852 l 1.52431,1.8434 1.03744,1.93156 1.6558,1.71769 1.73223,2.84825 -0.0754,9.03195 v 8.09137 l 1.09558,4.53374 0.58066,11.75532 0.55375,4.39512 0.49224,2.78154 0.15504,10.10847 0.89991,2.94087 0.55632,15.09282 -0.47285,2.80241 1.35709,3.2767 1.6833,3.64035 1.42841,2.42217 0.98929,3.40597 0.67145,4.2459 0.348,2.76763 0.70805,2.73834 1.17462,2.35378 -0.41318,2.35475 1.14932,2.26044 1.69508,2.99941"
         id="path885" />
      <path
         style="fill:none;stroke:#000000;stroke-width:1px;stroke-linecap:butt;stroke-linejoin:round;stroke-opacity:1"
         d="m 387.39455,635.77404 1.04464,2.53479 1.1062,1.52803 1.14316,1.66428 2.28649,1.63306 2.77121,1.69723 1.57738,1.4309 1.95432,0.89995 2.06096,1.62126 1.38986,1.71102 1.69385,0.48156 1.86053,1.26071 2.48956,2.02571 1.30571,1.83596 2.93731,1.55951 1.8607,1.84267 0.83607,1.45874 2.30396,1.38982"
         id="path887" />
      <ellipse
         style="fill:#000000;fill-opacity:1;stroke:#000000;stroke-width:0.248676;stroke-linejoin:round;stroke-miterlimit:4;stroke-dasharray:none;stroke-dashoffset:0;stroke-opacity:1"
         id="path889"
         cx="373.17987"
         cy="536.16107"
         rx="3.8756616"
         ry="3.8756618" />
      <ellipse
         style="fill:#000000;fill-opacity:1;stroke:#000000;stroke-width:0.248676;stroke-linejoin:round;stroke-miterlimit:4;stroke-dasharray:none;stroke-dashoffset:0;stroke-opacity:1"
         id="path889-3"
         cx="155.59962"
         cy="396.37695"
         rx="3.8756616"
         ry="3.8756618" />
      <path
         style="fill:none;stroke:#000000;stroke-width:1px;stroke-linecap:butt;stroke-linejoin:round;stroke-opacity:1"
         d="m 244.69062,466.75842 1.91812,-0.88474 1.90703,-1.15537 1.3473,-0.51276 0.53003,-1.5458 0.1531,-1.34427 0.31346,-1.58269 0.63825,-0.7552 1.42077,-0.49929 1.61593,-0.14659 1.89931,0.99948 0.68238,1.12315 0.73885,1.35764 0.45284,1.70249 0.36482,1.77777 0.27772,1.11097 0.46409,1.56686 0.12245,2.55296 0.20049,1.71104 -0.0927,2.25539 0.20857,1.44372 1.51894,0.93053 1.68685,0.98386 2.07819,1.78356 1.30504,0.74212 2.19,0.12009 0.85315,1.42143 1.30848,1.52232 1.61668,1.14869 0.99561,0.97587 2.24984,0.20329 1.63241,0.93314 2.22378,0.86238 0.93954,1.2464 1.00898,1.38162 2.00835,0.37982 1.04804,1.43998 0.3411,1.18333 1.96269,0.70204 1.45223,1.2048 1.1658,1.78702 0.70475,1.08872 0.81739,1.58441 0.49243,1.70342 1.26135,1.83567 1.9686,1.71928 2.1683,0.62059 2.30799,0.74294 2.97543,0.52758 1.8674,0.85775 2.70891,0.0861 2.51799,0.16312 2.87768,0.10156 3.88662,-0.35573 1.97866,1.54366 0.96057,1.10915 0.30993,1.42722 1.02528,1.09493 1.19489,0.10494 1.25256,0.71506 1.28376,-0.627 3.40759,-0.63977 2.10199,1.13994 21.69893,13.79758 2.07008,1.19459 0.44408,1.00709 1.95796,1.18664 2.01497,1.35802 2.21429,0.86452 2.06918,0.91575 2.09264,1.73085 1.27846,1.33414 1.98913,-0.0453 5.42434,-0.24066"
         id="path920" />
      <ellipse
         style="fill:#000000;fill-opacity:1;stroke:#000000;stroke-width:0.248676;stroke-linejoin:round;stroke-miterlimit:4;stroke-dasharray:none;stroke-dashoffset:0;stroke-opacity:1"
         id="path889-7"
         cx="141.29973"
         cy="285.53812"
         rx="3.8756616"
         ry="3.8756618" />
      <ellipse
         style="fill:#000000;fill-opacity:1;stroke:#000000;stroke-width:0.248676;stroke-linejoin:round;stroke-miterlimit:4;stroke-dasharray:none;stroke-dashoffset:0;stroke-opacity:1"
         id="path889-5"
         cx="261.1629"
         cy="474.89508"
         rx="3.8756616"
         ry="3.8756618" />
      <text
         xml:space="preserve"
         id="text940"
         style="font-style:normal;font-variant:normal;font-weight:bold;font-stretch:normal;font-size:18.6667px;line-height:1.25;font-family:Cochineal;-inkscape-font-specification:'Cochineal Bold';white-space:pre;shape-inside:url(#rect942);"
         transform="translate(422.20263,41.212213)"><tspan
           x="-106.51953"
           y="514.20459"><tspan
             style="shape-inside:url(#rect942)">Perote</tspan></tspan></text>
      <text
         xml:space="preserve"
         id="text940-5"
         style="font-style:normal;font-variant:normal;font-weight:bold;font-stretch:normal;font-size:18.6667px;line-height:1.25;font-family:Cochineal;-inkscape-font-specification:'Cochineal Bold';white-space:pre;shape-inside:url(#rect942-3);"
         transform="translate(375.8111,-41.310815)"><tspan
           x="-106.51953"
           y="514.20459"><tspan>Altotonga</tspan></tspan></text>
      <text
         xml:space="preserve"
         id="text940-9"
         style="font-style:normal;font-variant:normal;font-weight:bold;font-stretch:normal;font-size:18.6667px;line-height:1.25;font-family:Cochineal;-inkscape-font-specification:'Cochineal Bold';white-space:pre;shape-inside:url(#rect942-6);"
         transform="translate(276.02621,-112.89298)"><tspan
           x="-106.51953"
           y="514.20459"><tspan>Tlapacoyan</tspan></tspan></text>
      <text
         xml:space="preserve"
         id="text940-0"
         style="font-style:normal;font-variant:normal;font-weight:bold;font-stretch:normal;font-size:18.6667px;line-height:1.25;font-family:Cochineal;-inkscape-font-specification:'Cochineal Bold';white-space:pre;shape-inside:url(#rect942-1);"
         transform="translate(61.48558,-32.65536)"><tspan
           style="visibility:hidden"
           x="-106.51953"
           y="541.06787"><tspan
             dx="0 16.76264 8.7919941 8.3626785 6.3466454 5.8613281 11.106674 8.5680122 8.5680084 3.9573364 10.192009 8.5680084 3.9573364 5.6933136 8.7919998 3.9573364 10.397339 9.9119873 8.3626709 8.2319794">Martinez de la Torre</tspan></tspan></text>
      <text
         xml:space="preserve"
         id="text940-6"
         style="font-style:normal;font-variant:normal;font-weight:bold;font-stretch:normal;font-size:18.6667px;line-height:1.25;font-family:Cochineal;-inkscape-font-specification:'Cochineal Bold';white-space:pre;shape-inside:url(#rect942-9);"
         transform="translate(259.37963,-220.24726)"><tspan
           x="-106.51953"
           y="514.20459"><tspan>Martínez de 
</tspan></tspan><tspan
           x="-106.51953"
           y="537.53796"><tspan>la Torre</tspan></tspan></text>
      <path
         style="fill:#000000;stroke:#000000;stroke-width:1px;stroke-linecap:butt;stroke-linejoin:miter;stroke-opacity:1"
         d="m 441.71126,502.74478 -4.86244,12.9594 10.55486,0.0272 z"
         id="path1348"
         sodipodi:nodetypes="cccc" />
      <text
         xml:space="preserve"
         id="text940-62"
         style="font-style:normal;font-variant:normal;font-weight:bold;font-stretch:normal;font-size:16px;line-height:1.25;font-family:Cochineal;-inkscape-font-specification:'Cochineal Bold';text-align:center;white-space:pre;shape-inside:url(#rect942-0);"
         transform="translate(475.20844,25.931346)"
         x="25.358637"
         y="0"><tspan
           x="-73.190125"
           y="511.93789"><tspan
             style="font-size:16px;text-align:center;text-anchor:middle">Cofre de
</tspan></tspan><tspan
           x="-65.974121"
           y="531.93789"><tspan
             style="font-size:16px;text-align:center;text-anchor:middle">Perote
</tspan></tspan><tspan
           x="-95.790146"
           y="551.93789"><tspan
             style="font-size:16px;text-align:center;text-anchor:middle">4250 m. s. n. m.</tspan></tspan></text>
      <text
         xml:space="preserve"
         id="text1385"
         style="font-style:normal;font-variant:normal;font-weight:bold;font-stretch:normal;font-size:18.6667px;line-height:1.25;font-family:Cochineal;-inkscape-font-specification:'Cochineal Bold';text-align:center;white-space:pre;shape-inside:url(#rect1387);"
         transform="translate(490.53435,-414.82863)"
         x="23.831573"
         y="0"><tspan
           x="-317.73474"
           y="570.15185"><tspan
             style="font-style:normal;font-variant:normal;font-weight:bold;font-stretch:normal;font-size:18.6667px;font-family:Cochineal;-inkscape-font-specification:'Cochineal Bold';text-align:center;text-anchor:middle">Río
</tspan></tspan><tspan
           x="-327.9174"
           y="593.48523"><tspan
             style="font-style:normal;font-variant:normal;font-weight:bold;font-stretch:normal;font-size:18.6667px;font-family:Cochineal;-inkscape-font-specification:'Cochineal Bold';text-align:center;text-anchor:middle">Bobos</tspan></tspan></text>
      <text
         xml:space="preserve"
         id="text1391"
         style="font-size:24px;line-height:1.25;font-family:Cochineal;-inkscape-font-specification:'Cochineal, Normal';text-align:center;letter-spacing:2px;white-space:pre;shape-inside:url(#rect1393);"
         transform="translate(485.39138,-464.73604)"
         x="66.755913"
         y="0"><tspan
           x="-195.87963"
           y="614.95664"><tspan
             style="font-style:normal;font-variant:normal;font-weight:bold;font-stretch:normal;font-size:24px;font-family:Cochineal;-inkscape-font-specification:'Cochineal Bold';text-align:center;text-anchor:middle">CANTÓN
</tspan></tspan><tspan
           x="-157.23569"
           y="644.95664"><tspan
             style="font-style:normal;font-variant:normal;font-weight:bold;font-stretch:normal;font-size:24px;font-family:Cochineal;-inkscape-font-specification:'Cochineal Bold';text-align:center;text-anchor:middle">DE
</tspan></tspan><tspan
           x="-213.73562"
           y="674.95664"><tspan
             style="font-style:normal;font-variant:normal;font-weight:bold;font-stretch:normal;font-size:24px;font-family:Cochineal;-inkscape-font-specification:'Cochineal Bold';text-align:center;text-anchor:middle">JALACINGO</tspan></tspan></text>
      <g
         id="g1381"
         transform="matrix(1.6259595,0,0,1.6259595,-124.75456,-74.241805)">
        <path
           d="m 314.65432,249.85561 15.81213,14.73948 -0.46061,-6.12042 z"
           fill="#00d4ff"
           fill-rule="evenodd"
           stroke="#000000"
           stroke-width="0.189291"
           stroke-linecap="square"
           id="path1021"
           style="fill:#ffffff" />
        <path
           d="m 345.19331,248.76403 -14.71424,15.83737 -0.44799,-6.11411 15.16223,-9.71695 z"
           fill="#0092ff"
           fill-rule="evenodd"
           stroke="#000000"
           stroke-width="0.189291"
           stroke-linecap="square"
           id="path1023"
           style="fill:#000000" />
        <path
           d="m 314.69218,249.83037 15.78689,14.76472 -6.11411,0.43537 z m 1.01586,30.55161 14.77103,-15.78058 0.42906,6.10779 z m 30.55792,-1.01587 -15.78689,-14.76471 6.1141,-0.43537 9.67279,15.20639 z"
           fill="#0092ff"
           fill-rule="evenodd"
           stroke="#000000"
           stroke-width="0.189291"
           stroke-linecap="square"
           id="path1025"
           style="fill:#000000" />
        <path
           d="m 345.20592,248.78296 -14.73947,15.81213 6.12041,-0.4543 z"
           fill="#00d4ff"
           fill-rule="evenodd"
           stroke="#000000"
           stroke-width="0.189291"
           stroke-linecap="square"
           id="path1027"
           style="fill:#ffffff" />
        <path
           d="m 346.27858,279.34087 -15.81213,-14.75209 0.46061,6.12041 z m -30.55161,1.07265 14.73948,-15.82474 -6.12042,0.4606 -8.61906,15.35152 z"
           fill="#00d4ff"
           fill-rule="evenodd"
           stroke="#000000"
           stroke-width="0.189291"
           stroke-linecap="square"
           id="path1029"
           style="fill:#ffffff" />
        <path
           d="m 305.44215,264.57616 25.01799,0.0126 -5.21813,-4.82693 -19.79986,4.808 z"
           fill="#a8dbdb"
           id="path1031"
           style="fill:#ffffff;fill-rule:evenodd;stroke:#000000;stroke-width:0.189291;stroke-linecap:square" />
        <path
           d="m 330.45383,239.56447 0.0189,25.018 -5.1992,-4.82062 5.18027,-20.19107 z m -24.99907,24.94859 25.018,0.0694 -4.83955,5.18658 -20.17845,-5.24968 z m 24.94859,25.0874 0.0694,-25.01799 5.18658,4.83954 -5.24968,20.17845 z m 25.0874,-24.9549 -25.01799,-0.0631 4.83954,-5.18658 z"
           fill="#0700d6"
           id="path1033"
           style="fill:#000000;fill-rule:evenodd;stroke:#000000;stroke-width:0.189291;stroke-linecap:square" />
        <path
           d="m 330.47907,239.57078 -0.0189,25.018 4.82692,-5.21182 z m 24.99906,25.03693 -25.01799,-0.0189 5.21182,4.82692 z m -25.03692,24.99906 0.0189,-25.01799 -4.82693,5.21812 z"
           fill="#a8dbdb"
           id="path1035"
           style="fill:#ffffff;fill-rule:evenodd;stroke:#000000;stroke-width:0.189291;stroke-linecap:square" />
        <g
           font-size="12px"
           font-weight="700"
           font-family="Arial"
           id="g1047"
           transform="matrix(0.6309708,0,0,0.6309708,297.34048,231.00851)">
          <text
             x="517.84998"
             y="537.13"
             style="line-height:125%;text-align:start"
             transform="translate(-422.24,-480.33)"
             id="text1041"><tspan
               x="517.84998"
               y="537.13"
               id="tspan1039"
               style="font-style:normal;font-variant:normal;font-weight:bold;font-stretch:normal;font-family:Cochineal;-inkscape-font-specification:'Cochineal Bold'">E</tspan></text>
          <text
             x="423.70999"
             y="537.84003"
             style="font-style:normal;font-variant:normal;font-weight:bold;font-stretch:normal;font-size:12px;line-height:125%;font-family:Cochineal;-inkscape-font-specification:'Cochineal, Bold';font-variant-ligatures:normal;font-variant-caps:normal;font-variant-numeric:normal;font-variant-east-asian:normal;text-align:start"
             transform="translate(-422.24,-480.33)"
             id="text1045"><tspan
               x="423.70999"
               y="537.84003"
               id="tspan1043"
               style="font-style:normal;font-variant:normal;font-weight:bold;font-stretch:normal;font-size:12px;font-family:Cochineal;-inkscape-font-specification:'Cochineal, Bold';font-variant-ligatures:normal;font-variant-caps:normal;font-variant-numeric:normal;font-variant-east-asian:normal">O</tspan></text>
        </g>
        <text
           x="327.75327"
           y="236.90178"
           style="font-style:normal;font-variant:normal;font-weight:bold;font-stretch:normal;font-size:7.57165px;line-height:125%;font-family:Cochineal;-inkscape-font-specification:'Cochineal, Bold';font-variant-ligatures:normal;font-variant-caps:normal;font-variant-numeric:normal;font-variant-east-asian:normal;text-align:start;stroke-width:0.630971"
           id="text1051"><tspan
             x="327.75327"
             y="236.90178"
             style="font-style:normal;font-variant:normal;font-weight:bold;font-stretch:normal;font-size:7.57165px;line-height:125%;font-family:Cochineal;-inkscape-font-specification:'Cochineal, Bold';font-variant-ligatures:normal;font-variant-caps:normal;font-variant-numeric:normal;font-variant-east-asian:normal;text-align:start;stroke-width:0.630971"
             id="tspan1049">N</tspan></text>
        <text
           x="327.99304"
           y="296.68625"
           style="font-style:normal;font-variant:normal;font-weight:bold;font-stretch:normal;font-size:7.57165px;line-height:125%;font-family:Cochineal;-inkscape-font-specification:'Cochineal, Bold';font-variant-ligatures:normal;font-variant-caps:normal;font-variant-numeric:normal;font-variant-east-asian:normal;text-align:start;stroke-width:0.630971"
           id="text1055"><tspan
             x="327.99304"
             y="296.68625"
             id="tspan1053"
             style="font-style:normal;font-variant:normal;font-weight:bold;font-stretch:normal;font-size:7.57165px;font-family:Cochineal;-inkscape-font-specification:'Cochineal, Bold';font-variant-ligatures:normal;font-variant-caps:normal;font-variant-numeric:normal;font-variant-east-asian:normal;stroke-width:0.630971">S</tspan></text>
        <text
           x="306.63467"
           y="247.53365"
           style="font-style:normal;font-variant:normal;font-weight:normal;font-stretch:normal;font-size:5.67874px;line-height:125%;font-family:Cochineal;-inkscape-font-specification:'Cochineal, Normal';font-variant-ligatures:normal;font-variant-caps:normal;font-variant-numeric:normal;font-variant-east-asian:normal;text-align:start;stroke-width:0.630971"
           id="text1061"><tspan
             x="306.63467"
             y="247.53365"
             id="tspan1059"
             style="font-style:normal;font-variant:normal;font-weight:normal;font-stretch:normal;font-size:5.67874px;font-family:Cochineal;-inkscape-font-specification:'Cochineal, Normal';font-variant-ligatures:normal;font-variant-caps:normal;font-variant-numeric:normal;font-variant-east-asian:normal;stroke-width:0.630971">NO</tspan></text>
        <text
           x="346.2912"
           y="247.53365"
           style="font-style:normal;font-variant:normal;font-weight:normal;font-stretch:normal;font-size:5.67874px;line-height:125%;font-family:Cochineal;-inkscape-font-specification:'Cochineal, Normal';font-variant-ligatures:normal;font-variant-caps:normal;font-variant-numeric:normal;font-variant-east-asian:normal;text-align:start;stroke-width:0.630971"
           id="text1065"><tspan
             x="346.2912"
             y="247.53365"
             style="font-style:normal;font-variant:normal;font-weight:normal;font-stretch:normal;font-size:5.67874px;line-height:125%;font-family:Cochineal;-inkscape-font-specification:'Cochineal, Normal';font-variant-ligatures:normal;font-variant-caps:normal;font-variant-numeric:normal;font-variant-east-asian:normal;text-align:start;stroke-width:0.630971"
             id="tspan1063">NE</tspan></text>
        <text
           x="346.53098"
           y="285.70737"
           style="font-style:normal;font-variant:normal;font-weight:normal;font-stretch:normal;font-size:5.67874px;line-height:125%;font-family:Cochineal;-inkscape-font-specification:'Cochineal, Normal';font-variant-ligatures:normal;font-variant-caps:normal;font-variant-numeric:normal;font-variant-east-asian:normal;text-align:start;stroke-width:0.630971"
           id="text1069"><tspan
             x="346.53098"
             y="285.70737"
             id="tspan1067"
             style="font-style:normal;font-variant:normal;font-weight:normal;font-stretch:normal;font-size:5.67874px;font-family:Cochineal;-inkscape-font-specification:'Cochineal, Normal';font-variant-ligatures:normal;font-variant-caps:normal;font-variant-numeric:normal;font-variant-east-asian:normal;stroke-width:0.630971">SE</tspan></text>
        <text
           x="306.88077"
           y="285.70737"
           style="font-style:normal;font-variant:normal;font-weight:normal;font-stretch:normal;font-size:5.67874px;line-height:125%;font-family:Cochineal;-inkscape-font-specification:'Cochineal, Normal';font-variant-ligatures:normal;font-variant-caps:normal;font-variant-numeric:normal;font-variant-east-asian:normal;text-align:start;stroke-width:0.630971"
           id="text1073"><tspan
             x="306.88077"
             y="285.70737"
             style="font-style:normal;font-variant:normal;font-weight:normal;font-stretch:normal;font-size:5.67874px;line-height:125%;font-family:Cochineal;-inkscape-font-specification:'Cochineal, Normal';font-variant-ligatures:normal;font-variant-caps:normal;font-variant-numeric:normal;font-variant-east-asian:normal;text-align:start;stroke-width:0.630971"
             id="tspan1071">SO</tspan></text>
      </g>
    </g>
  </g>
</svg>
