<?xml version="1.0" encoding="UTF-8" standalone="no"?>
<svg
   xmlns:dc="http://purl.org/dc/elements/1.1/"
   xmlns:cc="http://creativecommons.org/ns#"
   xmlns:rdf="http://www.w3.org/1999/02/22-rdf-syntax-ns#"
   xmlns:svg="http://www.w3.org/2000/svg"
   xmlns="http://www.w3.org/2000/svg"
   xmlns:sodipodi="http://sodipodi.sourceforge.net/DTD/sodipodi-0.dtd"
   xmlns:inkscape="http://www.inkscape.org/namespaces/inkscape"
   version="1.1"
   id="svg2"
   width="587"
   height="865"
   viewBox="0 0 587 865"
   sodipodi:docname="jalacingo.svg"
   inkscape:version="1.0.2 (e86c870879, 2021-01-15)">
  <metadata
     id="metadata8">
    <rdf:RDF>
      <cc:Work
         rdf:about="">
        <dc:format>image/svg+xml</dc:format>
        <dc:type
           rdf:resource="http://purl.org/dc/dcmitype/StillImage" />
        <dc:title />
      </cc:Work>
    </rdf:RDF>
  </metadata>
  <defs
     id="defs6">
    <rect
       x="287.32431"
       y="701.15124"
       width="65.550016"
       height="33.057516"
       id="rect1385" />
    <rect
       x="287.32431"
       y="701.15125"
       width="65.550018"
       height="33.057514"
       id="rect1385-3" />
    <rect
       x="287.32431"
       y="701.15125"
       width="65.550018"
       height="33.057514"
       id="rect1398" />
    <rect
       x="287.32431"
       y="701.15125"
       width="65.550018"
       height="33.057514"
       id="rect1385-4" />
    <rect
       x="287.32431"
       y="701.15125"
       width="65.550018"
       height="33.057514"
       id="rect1398-1" />
    <rect
       x="287.32431"
       y="701.15125"
       width="65.550018"
       height="33.057514"
       id="rect1385-41" />
    <rect
       x="287.32431"
       y="701.15125"
       width="65.550018"
       height="33.057514"
       id="rect1398-5" />
    <rect
       x="287.32431"
       y="701.15125"
       width="65.550018"
       height="33.057514"
       id="rect1385-9" />
    <rect
       x="287.32431"
       y="701.15125"
       width="65.550018"
       height="33.057514"
       id="rect1398-8" />
    <rect
       x="287.32431"
       y="701.15125"
       width="65.550018"
       height="33.057514"
       id="rect1385-8" />
    <rect
       x="287.32431"
       y="701.15125"
       width="65.550018"
       height="33.057514"
       id="rect1398-52" />
    <rect
       x="287.32431"
       y="701.15125"
       width="65.550018"
       height="33.057514"
       id="rect1385-2" />
    <rect
       x="287.32431"
       y="701.15125"
       width="65.550018"
       height="33.057514"
       id="rect1398-7" />
    <rect
       x="287.32431"
       y="701.15125"
       width="65.550018"
       height="33.057514"
       id="rect1385-34" />
    <rect
       x="287.32431"
       y="701.15125"
       width="65.550018"
       height="33.057514"
       id="rect1398-6" />
    <rect
       x="287.32431"
       y="701.15125"
       width="65.550018"
       height="33.057514"
       id="rect1385-33" />
    <rect
       x="287.32431"
       y="701.15125"
       width="65.550018"
       height="33.057514"
       id="rect1398-4" />
    <rect
       x="287.32431"
       y="701.15125"
       width="65.550018"
       height="33.057514"
       id="rect1385-39" />
    <rect
       x="287.32431"
       y="701.15125"
       width="65.550018"
       height="33.057514"
       id="rect1398-72" />
    <rect
       x="287.32431"
       y="701.15125"
       width="65.550018"
       height="33.057514"
       id="rect1385-90" />
    <rect
       x="287.32431"
       y="701.15125"
       width="65.550018"
       height="33.057514"
       id="rect1398-2" />
    <rect
       x="287.32431"
       y="701.15125"
       width="65.550018"
       height="33.057514"
       id="rect1385-6" />
    <rect
       x="287.32431"
       y="701.15125"
       width="65.550018"
       height="33.057514"
       id="rect1398-57" />
    <rect
       x="287.32431"
       y="701.15125"
       width="65.550018"
       height="33.057514"
       id="rect1385-333" />
    <rect
       x="287.32431"
       y="701.15125"
       width="65.550018"
       height="33.057514"
       id="rect1398-85" />
    <rect
       x="287.32431"
       y="701.15125"
       width="65.550018"
       height="33.057514"
       id="rect1385-87" />
    <rect
       x="287.32431"
       y="701.15125"
       width="65.550018"
       height="33.057514"
       id="rect1398-63" />
    <rect
       x="287.32431"
       y="701.15125"
       width="65.550018"
       height="33.057514"
       id="rect1385-80" />
    <rect
       x="287.32431"
       y="701.15125"
       width="65.550018"
       height="33.057514"
       id="rect1398-41" />
    <rect
       x="287.32431"
       y="701.15125"
       width="65.550018"
       height="33.057514"
       id="rect1385-5" />
    <rect
       x="287.32431"
       y="701.15125"
       width="65.550018"
       height="33.057514"
       id="rect1398-9" />
    <rect
       x="287.32431"
       y="701.15125"
       width="65.550018"
       height="33.057514"
       id="rect1385-1" />
    <rect
       x="287.32431"
       y="701.15125"
       width="65.550018"
       height="33.057514"
       id="rect1398-50" />
    <rect
       x="287.32431"
       y="701.15125"
       width="65.550018"
       height="33.057514"
       id="rect1385-35" />
    <rect
       x="287.32431"
       y="701.15125"
       width="65.550018"
       height="33.057514"
       id="rect1398-65" />
    <rect
       x="287.32431"
       y="701.15125"
       width="123.57793"
       height="23.550967"
       id="rect1385-0" />
    <rect
       x="287.32431"
       y="701.15125"
       width="65.550018"
       height="33.057514"
       id="rect1398-76" />
    <rect
       x="287.32431"
       y="701.15125"
       width="89.987214"
       height="35.484686"
       id="rect1385-61" />
    <rect
       x="287.32431"
       y="701.15125"
       width="65.550018"
       height="33.057514"
       id="rect1398-506" />
    <rect
       x="287.32431"
       y="701.15125"
       width="82.56237"
       height="32.388871"
       id="rect1385-12" />
    <rect
       x="287.32431"
       y="701.15125"
       width="65.550018"
       height="33.057514"
       id="rect1398-26" />
    <rect
       x="287.32431"
       y="701.15125"
       width="81.649958"
       height="33.614346"
       id="rect1385-04" />
    <rect
       x="287.32431"
       y="701.15125"
       width="65.550018"
       height="33.057514"
       id="rect1398-27" />
    <rect
       x="287.32431"
       y="701.15125"
       width="203.67282"
       height="26.737756"
       id="rect1385-349" />
    <rect
       x="287.32431"
       y="701.15125"
       width="65.550018"
       height="33.057514"
       id="rect1398-274" />
    <rect
       x="287.32431"
       y="701.15125"
       width="77.36286"
       height="22.760248"
       id="rect1385-24" />
    <rect
       x="287.32431"
       y="701.15125"
       width="65.550018"
       height="33.057514"
       id="rect1398-43" />
    <rect
       x="287.32431"
       y="701.15125"
       width="94.31428"
       height="25.33409"
       id="rect1385-08" />
    <rect
       x="287.32431"
       y="701.15125"
       width="65.550018"
       height="33.057514"
       id="rect1398-92" />
    <rect
       x="287.32431"
       y="701.15125"
       width="65.550018"
       height="33.057514"
       id="rect1385-18" />
    <rect
       x="287.32431"
       y="701.15125"
       width="65.550018"
       height="33.057514"
       id="rect1398-3" />
    <rect
       x="287.32431"
       y="701.15125"
       width="165.36193"
       height="21.85257"
       id="rect1385-08-2" />
    <rect
       x="287.32431"
       y="701.15125"
       width="65.550018"
       height="33.057514"
       id="rect1941" />
    <rect
       x="287.32431"
       y="701.15125"
       width="123.10977"
       height="22.149972"
       id="rect1385-08-5" />
    <rect
       x="287.32431"
       y="701.15125"
       width="65.550018"
       height="33.057514"
       id="rect1941-1" />
    <rect
       x="287.32431"
       y="701.15125"
       width="147.88756"
       height="442.32568"
       id="rect1385-08-57" />
    <rect
       x="287.32431"
       y="701.15125"
       width="65.550018"
       height="33.057514"
       id="rect1941-16" />
    <rect
       x="287.32431"
       y="701.15125"
       width="108.26942"
       height="22.123887"
       id="rect1385-08-8" />
    <rect
       x="287.32431"
       y="701.15125"
       width="65.550018"
       height="33.057514"
       id="rect1941-13" />
    <rect
       x="287.32431"
       y="701.15125"
       width="119.06817"
       height="85.281863"
       id="rect1385-08-6" />
    <rect
       x="287.32431"
       y="701.15125"
       width="65.550018"
       height="33.057514"
       id="rect1941-7" />
  </defs>
  <sodipodi:namedview
     pagecolor="#ffffff"
     bordercolor="#666666"
     borderopacity="1"
     objecttolerance="10"
     gridtolerance="10"
     guidetolerance="10"
     inkscape:pageopacity="0"
     inkscape:pageshadow="2"
     inkscape:window-width="1260"
     inkscape:window-height="743"
     id="namedview4"
     showgrid="false"
     showborder="false"
     inkscape:showpageshadow="false"
     inkscape:zoom="0.58265896"
     inkscape:cx="200.771"
     inkscape:cy="333.49816"
     inkscape:window-x="0"
     inkscape:window-y="0"
     inkscape:window-maximized="1"
     inkscape:current-layer="g10"
     inkscape:document-rotation="0"
     showguides="true"
     inkscape:guide-bbox="true" />
  <g
     inkscape:groupmode="layer"
     inkscape:label="Image"
     id="g10">
    <g
       id="g762">
      <path
         style="fill:none;stroke:#000000;stroke-width:2;stroke-linecap:butt;stroke-linejoin:round;stroke-miterlimit:4;stroke-dasharray:none;stroke-opacity:1"
         d="m 205.55518,36.00498 0.66813,7.1984 1.98952,7.07927 2.45187,6.12818 2.43818,5.99202 3.61271,6.07466 3.40244,5.65187 2.81338,4.37511"
         id="path16"
         sodipodi:nodetypes="cccccccc" />
      <path
         style="fill:none;stroke:#000000;stroke-width:2;stroke-linecap:butt;stroke-linejoin:round;stroke-miterlimit:4;stroke-dasharray:none;stroke-opacity:1"
         d="M 212.09189,83.01434 205.56155,54.77077 219.41852,80.8055"
         id="path18"
         sodipodi:nodetypes="ccc" />
      <path
         style="fill:none;stroke:#000000;stroke-width:2;stroke-linecap:butt;stroke-linejoin:round;stroke-miterlimit:4;stroke-dasharray:none;stroke-opacity:1"
         d="m 221.96042,98.56182 14.19319,25.73177 3.31474,5.55602 2.35572,6.8505 0.86855,5.15703 2.47754,4.57611 1.57929,5.55472 2.67954,4.69827 6.41344,10.12454 9.44071,22.45371 2.93201,5.02224 1.25745,4.23513 1.88631,4.75495 4.61322,4.70712 6.7597,6.0399 2.02065,3.17658 3.57367,4.34381 7.91968,6.81556 7.18287,6.95601 9.46196,6.5661 5.3758,6.43035 5.785,4.23441 1.90743,6.19005 7.44126,11.14213 3.35128,6.56179 1.75729,1.29735 1.99425,7.12781 4.37759,7.52599 2.10735,6.20164 1.9062,4.57791 1.60242,4.68181 1.48749,10.34804 1.51555,4.65457 0.73591,2.70365 3.49318,3.0455 4.64472,2.77567 5.11692,2.33193 4.11152,3.35703 2.11962,4.77798 1.2937,3.42232 2.24479,1.40971 2.2412,0.25601 3.44938,2.30312 3.03819,4.16898 2.36833,5.97556 2.31799,2.74954 1.58192,3.31917 1.97435,4.13848 2.8881,3.15661 4.43782,2.41995 4.77805,1.94057 5.1757,1.93949 4.90564,1.38657 6.78049,0.82508 7.15369,0.68262 9.69851,0.96124 7.21313,0.70003 8.39942,1.02438 7.45559,2.65777 5.06418,2.48767 5.21262,4.04207 7.97648,4.45254 8.91759,2.55014 7.31773,2.86078 4.05688,3.7014 0.70289,5.54341 2.7922,3.20106 4.80873,3.61251 1.75192,3.10724 2.98759,3.52161 3.82778,3.3562 4.37983,4.36058 4.48562,2.46925 4.64305,1.74236 4.42897,-0.58433 8.48026,-1.48776 6.86565,-1.68876 19.73334,-2.8422"
         id="path843" />
      <path
         style="fill:none;stroke:#000000;stroke-width:1.5;stroke-linecap:butt;stroke-linejoin:round;stroke-miterlimit:4;stroke-dasharray:none;stroke-dashoffset:0;stroke-opacity:1"
         d="m 206.22331,43.20338 -10.17962,0.71976 -2.35623,-3.85965 -1.34118,-3.95727 -2.6278,-3.41633 -5.24187,-1.50998 -0.79794,-1.22258 -5.36635,-0.55075 -2.03844,-1.54665 -2.83775,-2.38141 -1.76866,-0.0723 -1.61809,-1.95752 -2.85499,-2.25498 -4.71847,-0.65647 -3.60873,-0.31092 -4.36823,0.77489 -2.23634,1.60621 -0.7765,3.34497 -1.84967,1.31418 -2.52671,-1.10516 -1.47964,-0.8528 -1.9177,-2.13714 -3.02076,-0.52662 -2.47085,1.29386 -1.70009,0.93674 -3.11296,0.96417 h -2.51807 -3.04883 -2.58852 l -2.43785,1.05628 0.70132,1.74296 2.44804,1.22534 3.45282,1.93388 2.63631,2.74627 3.2424,0.5281 2.19959,0.72744 1.99279,2.17914 1.88275,1.47396 2.16906,1.42237 1.25686,1.16537 1.20712,1.45587 2.57691,0.39184 1.74584,0.89588 1.86373,-0.21225 1.56821,1.31495 -0.31039,1.44008 -1.24351,1.21443 -1.83634,1.32024 -2.39895,1.21705 -1.81248,0.61363 -0.104,1.10962 -0.82768,0.8153 -0.60312,2.28054 -0.8798,2.31962 -0.26341,1.61237 -0.2553,2.26682 0.1503,2.29504 -0.63818,1.48986 -0.49571,1.70483 -1.12933,1.39059 -3.00326,0.91806 -2.20033,0.91433 -1.76364,0.99773 -1.57561,0.25402 0.87355,1.86626 0.63718,2.1348 0.35827,2.58059 0.39726,2.33861 0.55548,1.82638 0.6576,1.80832 1.41559,0.69183 1.49025,0.51738 0.0259,2.66071 V 90.479 l -1.05718,1.74629 -0.68553,1.39945 -1.13404,1.23957 -1.37675,1.85003 -1.55203,2.58429 -0.88707,2.33411 -1.45088,3.63339 -0.56442,2.34801 -0.0718,1.55962 0.34167,2.15418 1.52391,2.40481 2.14805,1.40709 1.12449,2.0179 1.11012,1.5741 0.50408,2.25881 1.06807,2.55828 0.0627,2.63167 -0.56416,1.61646 1.96444,1.16431 -0.042,3.12466 -1.31721,1.53141 0.0497,1.65703 -1.02765,1.1993 -0.15372,1.48584 1.77436,1.84587 0.93033,0.5799 0.2171,1.13918 0.58236,1.29776 0.6057,0.71597 1.72919,0.7575 0.50537,1.37105 0.82602,1.90202 2.2824,2.39641 1.7691,2.08594 2.03626,1.66419 2.9487,-0.87226 1.3872,-1.48614 0.89774,-1.07038 0.90329,-1.84603 0.1688,2.25663 1.02047,1.39885 -1.42373,1.30376 0.1517,1.19972 0.13703,1.62402 -0.75659,1.19633 0.70952,2.06054 0.92083,1.49022 1.76852,-0.061 1.68336,-0.83551 1.39506,-0.77744 1.06787,-1.46267 1.14786,-1.39418 1.79822,-0.99503 2.02498,0.68973 0.54373,1.33314 1.63495,0.57455 -0.21119,2.27998 -0.78831,1.58967 -2.06606,1.0516 -2.19508,1.78254 -1.44987,2.39739 -0.54839,1.76024 0.13985,2.36181 -0.22246,2.44142 0.28754,2.49385 -1.1637,2.64338 -2.13562,1.11849 -0.76845,2.93981 -2.19639,1.27973 -1.94444,-0.29487 -1.56024,-1.02798 h -1.92343 -1.78913 l -1.77949,0.8487 -1.38036,0.85596 -1.25904,0.64109 -1.08538,1.55056 -0.60824,1.19523 -0.62899,0.99435 -1.76361,0.56835 -0.20291,1.47786 -1.55095,0.87617 -1.21061,0.85442 -1.6633,0.22144 -1.23753,0.6869 -1.30499,0.3335 -0.55798,1.50429 -0.34343,1.95805 1.96646,2.19181 2.02232,-1.0237 1.75208,-1.05908 3.57951,0.2582 -1.26279,2.42328 -1.95443,1.72663 -1.01399,1.98702 -1.06299,2.84793 -0.80385,2.92549 -2.46197,1.98696 -1.60557,1.61227 0.0102,2.08183 0.89904,0.69733 0.44382,1.91092 -0.42782,1.62609 0.0399,2.06632 1.31695,1.43954 1.50293,0.84906 0.65598,1.70977 1.91378,1.48137 1.12676,0.13446 1.49997,0.29905 1.72941,0.62755 2.32335,0.13661 1.90789,-0.48541 1.79508,-1.92533 2.22505,-1.04471 2.02517,0.57249 2.19098,-0.33184 0.473,-2.54743 1.1204,-1.87968 0.53461,-1.11448 2.49554,-0.0492 0.57295,-1.68672 1.88338,-0.97841 2.6258,-1.88382 1.73637,-0.4097 1.13326,-0.8268 1.77123,-0.88472 2.35689,-0.1427 2.50245,-0.008 0.69379,-0.52438 -0.1419,-1.78548 v -1.64431 l -1.03362,-2.0391 0.12233,-2.33627 1.04999,-1.16167 2.2253,-1.45337 1.68015,-0.80394 2.03739,0.47188 1.29412,1.31503 1.5543,0.70207 0.77569,1.84821 0.45008,2.6356 0.35941,1.45104 1.93218,1.83411 2.18897,-0.53904 1.64102,-1.06286 0.0529,-2.57044 0.22075,-2.12527 0.4551,-2.24456 v -2.36582 l -2.28493,1.2387 v -2.82136 l -0.004,-2.05775 1.33163,-2.01064 1.92506,-2.02188 1.24736,-1.66451 0.72483,-2.00201 0.49195,-3.27132 0.21116,-2.06636 0.12924,-2.36736 0.16279,-2.70999 1.08193,1.54589 1.67378,0.97821 1.71086,0.52129 0.61094,2.19176 1.35651,0.94687 1.95208,1.02076 2.05395,1.07496 2.03051,1.16365 1.65942,0.91221 0.31918,1.43281 0.62603,1.9422 0.57713,2.26639 0.50216,1.57817 0.8874,1.59589 0.45571,2.67366 1.48045,2.35149 1.09423,1.94195 0.85906,1.87468 1.78277,1.51537 0.55425,1.68073 1.50961,1.73591 1.64136,1.32883 1.79974,0.0613 1.74521,-0.86428 h 2.19237 l 0.25568,1.25473 1.68249,0.80349 0.70814,1.37158 -0.78956,1.26912 -1.7456,0.81136 -0.49464,1.49082 -1.89071,0.68326 -1.99171,1.05719 -2.81582,-0.0726 -2.44163,1.00422 -1.65171,-0.5283 -1.27605,-1.5266 h -1.77346 l -1.85641,0.28939 -0.24974,2.45163 0.24717,2.00793 -1.46738,2.12538 v 2.34383 l 0.36407,2.51931 0.36012,2.05228 0.45642,1.41268 0.4666,2.04515 0.38753,2.27934 -0.31453,1.62238 0.0722,2.11819 0.68329,1.22734 1.18421,1.67056 1.64659,0.26274 1.34757,0.72826 0.52611,1.4298 0.23915,1.13532 1.60099,0.22735 0.96687,-1.74246 2.00519,0.1517 1.34272,1.02442 1.042,0.72089 2.449,-0.21688 1.91719,2.45513 2.18325,-0.73908 2.62991,-1.39202 2.13941,-1.15702 0.93828,-1.99169 0.958,-1.64307 0.71717,-2.50155 0.44486,-3.01359 1.24669,-1.43924 1.25428,-0.26069 2.24023,0.18147 -0.0302,1.65975 2.90728,0.43582 2.40813,0.73911 2.04271,0.0934 1.69425,0.50809 1.72564,1.34517 2.43225,0.92805 1.76517,0.4551 2.19039,1.17006 2.43648,1.17399 2.54213,1.25406 2.05503,0.25983 -0.0875,1.26861 0.85483,1.63191 -1.69362,3.02184 -2.04728,2.61251 -1.29959,2.1819 -0.98953,2.29331 -1.18722,1.95429 -1.44779,2.64816 -1.34518,1.84342 -0.15981,1.76397 -1.23112,1.55988 -1.50683,1.40352 v 1.86192 l -2.24722,0.91183 0.01,2.05529 -0.29027,2.31782 -0.37036,1.97191 -0.42067,1.78161 0.17825,1.547 0.0541,2.3312 -1.30851,1.52602 0.6113,1.47292 -0.27134,1.33169 -0.0505,2.98681 -0.40983,1.31974 -1.3977,1.0978 -1.13299,1.96683 -1.81607,1.08438 -2.60155,1.21669 -1.02633,1.18611 -0.57078,1.98528 -0.0144,2.40089 1.23085,1.32969 1.34052,1.59251 1.05253,2.65265 -0.1361,1.28215 -0.008,2.39975 0.42124,2.56657 -0.165,1.49807 0.33206,1.84689 2.08953,2.2014 1.63786,0.1137 2.67246,0.31736 2.13154,0.49107 3.52245,0.57231 2.52677,1.44902 2.33197,2.2558 1.25828,1.6421 2.30369,0.13448 h 1.32611 2.23233 l 1.96129,-0.23023 2.18028,0.14231 2.15781,0.20744 1.74769,0.36329 1.2645,0.73989 1.43438,0.77891 2.12575,1.06945 0.34097,1.60534 -1.31284,1.77237 -0.82412,1.54023 -1.19585,1.55528 -0.39792,0.98377 -1.28847,1.19037 -1.83915,1.39949 -2.62033,0.63628 -2.97159,0.43193 -3.11191,0.49629 -1.51493,1.40948 -1.31728,0.94685 -1.02428,0.75087 -1.76533,0.93998 -1.80897,1.27134 h -1.78088 l -1.3407,0.2229 -0.72549,0.69314 -0.82069,1.26853 0.27566,1.41252 0.98045,2.24953 0.30118,2.28589 0.53634,2.17037 -0.30699,1.50894 0.10815,1.2824 v 1.85514 l -0.10727,1.81733 -0.4795,2.66921 -0.95152,2.14715 -0.41596,1.54173 -1.04157,1.34463 -0.13829,2.38382 0.30314,2.05223 -0.88343,1.7993 0.12369,3.16585 -0.14504,1.43939 0.0291,1.56673 0.76073,1.03099 0.34253,0.93743 -2.02207,0.38567 0.01,2.56815 0.57805,0.77862 1.7394,0.46475 1.26599,1.24996 1.16759,1.14496 0.80129,0.57595 1.75968,0.0936 1.34117,0.0262 1.14966,-0.005 1.86681,-0.95365 1.1793,-1.29131 1.91154,-0.0999 1.62137,0.0733 1.55011,1.11048 1.23587,2 0.76243,1.71044 1.27878,1.92391 0.73616,1.76687 0.91419,1.05962 0.2331,1.54179 0.59096,1.15753 0.33039,1.29404 -0.42352,1.38975 -0.51325,1.07492 0.37948,1.82746 1.01966,1.22454 1.29716,0.94896 1.39333,0.81873 1.30502,-0.54763 1.09683,-0.74805 1.22854,-0.68997 0.5267,-0.57227 0.94888,-0.94888 1.20518,-0.99125 1.59779,-0.81841 1.29006,-0.6086 1.40243,-0.24939 0.79117,-0.90506 1.02991,-0.30854 1.07839,-0.35412 2.69305,-0.44223 2.32047,0.45716 2.5881,2.19506 1.62328,1.56758 1.55665,1.5808 0.62864,1.07993 0.0224,0.55054 0.0384,0.88827 1.28395,0.51549 1.86181,0.37937 1.19826,-0.59894 0.71862,-1.54852 0.5884,-0.87365 -0.0538,-1.82441 h 1.13598 l 1.43931,-2.01543 1.41776,-0.8691 0.20921,-1.12497 1.06793,-1.27107 0.0951,-1.43836 -0.10726,-1.38249 -0.85911,-1.9817 -0.92684,-1.71898 -0.21453,-1.13965 0.86144,-1.15857 0.67751,-1.37401 1.30006,0.33616 2.22308,0.47728 0.0294,0.95273 1.82009,0.0237 2.07606,0.20228 0.0397,-1.1976 0.90706,-0.46722 1.46916,1.15393 1.38412,0.22684 0.45342,0.93615 1.89416,0.70918 2.0353,0.15409 1.87711,1.581 2.08432,1.40993 1.95665,0.0897 0.9988,1.21862 1.86354,0.7398 0.40971,1.61671 0.78697,1.31299 v 1.30574 l 0.79952,1.53128 1.43568,2.18856 0.59663,2.0472 1.58297,1.33864 1.81321,0.77445 0.72777,1.2716 1.76212,1.19657 0.57362,1.59056 0.397,1.36539 0.72093,2.02061 1.80282,0.58062 1.04402,1.12227 0.66331,1.51065 v 1.30258 l 0.15688,2.07011 0.11401,1.42389 0.93743,1.40741 0.33531,1.62318 0.35123,0.80769 1.03809,1.70365 0.59156,1.3723 0.90318,1.77876 1.06766,1.22243 0.96648,1.36703 0.67948,1.06488 1.43024,0.82058 2.09937,1.06714 2.27615,-0.11471 2.38178,-0.73624 3.67267,-0.0415 3.52367,-0.0943 1.52999,-0.47539 3.26593,0.65281 h 2.83256 l 2.67597,-0.8969 2.01825,-1.07315 2.55281,-0.1243 1.87807,1.30973 h 1.98943 l 2.67266,0.50014 1.58122,2.15725 1.57532,2.39603 0.7234,3.28727 0.20801,2.4868 -0.0117,1.382 0.0947,3.65876 -0.70869,1.89701 -0.41492,2.08801 -0.92965,1.63133 -1.05713,3.34504 -1.13052,1.78245 -1.26872,2.38508 -0.9389,1.8404 -0.9311,2.11053 -0.0202,1.80974 -1.25522,1.42928 -1.27763,0.46038 0.70154,1.95142 0.48323,2.79351 0.72966,2.61245 0.0322,2.87867 0.7179,2.49634 1.14181,2.61953 1.10156,1.76361 0.88316,1.22086 1.50603,1.04858 2.28697,-0.3674 2.56258,-0.0757 2.49605,-0.68766 2.93555,-0.2462 2.31126,0.24768 1.91478,0.97837 2.78982,-1.37787 1.79573,1.16172 2.11963,0.0687 h 1.97367 l 2.12936,0.31952 2.3219,0.68978 2.45515,-2.86486 0.36299,-2.71213 1.01098,-2.43739 2.80453,0.91213 1.51387,1.21889 0.73596,-2.54669 0.52592,-2.98425 1.46149,-1.73937 1.94659,-1.99246 0.93644,-1.81248 1.61849,-1.3307 -1.3387,-1.63929 1.59233,-1.32884 2.74666,0.23292 2.14669,-0.26391 3.13175,0.007 2.53888,2.39012 1.01887,1.629 -0.43285,2.67819 -1.35508,1.52025 0.65008,3.21816 0.48856,1.44263 1.4217,0.75433 0.48353,1.25789 1.80178,0.44811 0.54232,2.16034 0.53158,2.09845 1.70724,1.33541 1.1778,1.28962 0.8874,1.55481 0.97644,1.45519 0.78376,1.53113 0.87298,1.77535 0.10719,2.83542 1.46345,1.03021 1.5742,0.92072 1.33382,0.84324 2.13661,0.5004 1.07803,1.19054 2.49504,0.55295 2.57127,-0.40065 2.48078,0.14204 2.33553,-0.0467 2.65274,0.58892 2.21571,0.80393 0.91019,1.89493 0.0205,2.38835 -0.26923,2.3154 0.41403,1.34352 0.6894,1.98933 0.83225,1.92258 1.47063,1.71977 2.13622,0.0931 1.4702,-0.0114 3.9293,0.49353 2.96591,-0.87568 2.26329,0.32627 2.90673,0.26194 3.1891,0.40246 2.98291,0.3793 2.28307,-0.12615 3.08171,0.4286 2.4688,-0.66013 1.23258,0.40445 2.49517,-0.0969 1.00613,0.4938 1.83536,0.17698 1.83077,0.25025 2.37997,0.0559 2.20792,-0.38131 2.20872,0.4315 3.27671,-0.33058 1.41401,0.38289 2.81416,0.0229 3.29579,0.19299 2.01109,0.30216 2.5722,0.6058 2.51816,-0.58345 2.91255,1.07954 2.85814,0.0956 2.21883,0.40163 2.23186,-0.58641 2.30431,0.43369 4.59685,0.55659 2.29245,0.49738 3.34606,0.36271 1.06825,0.59101 0.97989,-1.11339 0.64322,-1.1227 1.0957,-1.61235 1.47884,-2.49116 1.62068,-2.24389 2.67648,-1.44614 1.51134,-0.797 2.87169,-1.11897 2.74224,-0.90814 2.71767,-1.93282 3.52898,-1.4435 2.15635,-1.17193 2.27318,-0.19684 0.85997,-2.18767 0.45026,-3.33238 0.21587,-3.11209 1.06791,-3.12014 0.2645,-3.57662 0.364,-2.8407 -0.0954,-3.25859 -1.70693,-0.0527 -1.19295,-1.86981 -1.18053,-1.57794 -1.30675,-2.52162 -0.21725,-4.69665 -0.29354,-1.10184 -1.97785,-0.0555 -1.47484,-1.44605 -1.9026,-1.54574 -2.28189,-1.3401 -1.95877,-0.94661 -1.45283,-0.57058 -1.9421,-0.48808 -1.70732,-1.3325 0.1517,-1.15395 -2.07615,-0.89743 -2.98042,-1.42763 -1.99089,-0.9088 -1.8772,-1.0088 -1.0677,-1.99001 -1.02782,-2.0915 v -1.01469 l -2.08748,-1.252 -1.70568,-1.41292 -2.15726,-2.01704 -2.04039,-2.10442 -2.06436,-1.10882 -0.91939,-0.99955 -0.37078,-1.24837 -0.82959,-1.65277 -0.28207,-1.80771 0.33873,-2.31323 1.09329,-1.16232 0.0781,-2.36463 v -1.30453 l 0.0475,-2.02168 v -2.345 l -0.52648,-1.95366 -0.67565,-1.98327 -0.73301,-2.03035 -0.78788,-1.99649 -0.49736,-2.64048"
         id="path845"
         sodipodi:nodetypes="ccccccccccccccccccccccccccccccccccccccccccccccccccccccccccccccccccccccccccccccccccccccccccccccccccccccccccccccccccccccccccccccccccccccccccccccccccccccccccccccccccccccccccccccccccccccccccccccccccccccccccccccccccccccccccccccccccccccccccccccccccccccccccccccccccccccccccccccccccccccccccccccccccccccccccccccccccccccccccccccccccccccccccccccccccccccccccccccccccccccccccccccccccccccccccccccccccccccccccccccccccccccccccccccccccccccccccccccccccccccccccccccccccccccccccccccccccccccccccccccccccccccccccccccccccccccccccccccccccccccccccccccccccccccccccccccccccccccccccccccccccccccccccccccccccccccccccccccccccccccccccccccccccccccccccccccccccccccccccccccccccccccccccccccccccccccccccccccccccccccccccccccccccccccccccccccccccccccccccccccccccccccccccc" />
      <path
         style="fill:none;stroke:#000000;stroke-width:1.5;stroke-linecap:butt;stroke-linejoin:round;stroke-miterlimit:4;stroke-dasharray:none;stroke-dashoffset:0;stroke-opacity:1"
         d="m 138.95266,85.82536 5.26092,-3.0098 1.96885,-0.94535 2.35188,1.34942 1.96561,1.10436 0.58065,1.24657 0.15527,1.81534 1.46672,0.67062 3.14463,3.28526 v 1.79792 l 0.60825,3.01453 0.90491,1.76641 0.83007,1.08436 4.84542,-0.0299 2.38696,-0.54358 2.81987,0.43702 1.98684,0.87327 1.90329,0.85698 2.13308,1.12025 2.072,1.21417 1.99628,-0.0842 1.48212,-0.89492 1.70201,0.0547 h 1.8459 l 1.8552,1.19321 0.0336,1.04968 0.48171,1.06142 1.20667,0.5497 0.97978,1.74033 0.45471,3.20636 -0.0634,2.95462 -0.15557,3.2734 0.62849,1.05786 0.69013,1.00697 -0.17545,1.0941 -0.0441,1.0334 0.33931,1.73547 0.17672,1.19925 -0.79882,2.46999 1.38232,1.36815 0.88647,1.78912 1.15127,2.18513 0.84018,1.64927 1.15601,1.25136 1.58266,0.88669 1.87276,1.2252 h 2.36967 l 1.28357,-1.33112 1.73968,-1.66481 1.70513,-1.94037 1.47666,-2.17334 1.0264,-1.11318 1.62878,-1.90129 1.80623,-1.35294 1.56028,-0.72149 2.04433,0.12886 1.8087,-0.0299 1.6378,-0.10517 h 1.33914 1.83278 l 1.21108,0.0882 1.45092,-0.56986 0.96965,-0.73343 1.03598,-1.25023 0.88296,-0.91518 1.2867,-0.95327 0.49417,-1.16391 0.75547,-1.09034 0.63617,-1.73449 1.43743,-0.88068"
         id="path847"
         sodipodi:nodetypes="cccccccccccccccccccccccccccccccccccccccccccccccccccccccccccccccccccccc" />
      <path
         style="fill:none;stroke:#000000;stroke-width:1.5;stroke-linecap:butt;stroke-linejoin:round;stroke-miterlimit:4;stroke-dasharray:none;stroke-dashoffset:0;stroke-opacity:1"
         d="m 168.20038,156.13456 3.04265,-1.0349 2.10324,-0.54199 2.108,0.20448 1.46528,0.17478 1.85855,-0.0813 0.93607,0.67698 0.99483,0.53712 0.86277,0.83382 1.40219,1.09769 0.57774,0.87628 0.92132,0.91236 0.6487,1.25329 0.0477,1.10132 -0.2759,1.35891 0.83474,0.88948 0.56393,1.2558 1.06272,-0.0833 0.69123,-1.03033 1.35818,-1.4806 1.16734,-1.24138 1.86986,-0.10727 1.80732,-0.48529 -0.0958,-1.79792 0.10727,-1.71372 -0.0282,-3.07232 0.0275,-2.01191 0.49711,-2.00346 0.60214,-3.07064 1.05881,-2.68852 0.72867,-2.25021 1.44568,-0.0317 -0.66037,-2.31642 0.90957,-0.61481 0.30539,-1.01315 -0.0222,-1.5391"
         id="path849"
         sodipodi:nodetypes="cccccccccccccccccccccccccccccccccccc" />
      <path
         style="fill:none;stroke:#000000;stroke-width:1.5;stroke-linecap:butt;stroke-linejoin:round;stroke-miterlimit:4;stroke-dasharray:none;stroke-dashoffset:0;stroke-opacity:1"
         d="m 192.44152,161.7058 1.36085,3.17065 0.52178,0.84485 -0.47885,1.01152 0.91525,1.75482 0.94471,1.4364 0.59907,0.83566 0.92053,1.53426 0.79929,1.35421 1.70598,-0.56714 1.57787,-0.89394 2.05249,-0.23253 0.4746,-1.03095 0.82606,-1.08636 1.05638,-0.13958 1.56445,-0.28484 -0.70021,1.07366 -0.72936,1.04875 -0.60635,0.69689 -0.76865,1.5133 -0.24713,1.42575 -1.21292,1.05589 0.004,1.05566 0.0591,1.20798 -0.80289,1.03188 -1.51196,2.10618"
         id="path851"
         sodipodi:nodetypes="cccccccccccccccccccccccccc" />
      <path
         style="fill:none;stroke:#000000;stroke-width:1.5;stroke-linecap:butt;stroke-linejoin:miter;stroke-miterlimit:4;stroke-dasharray:none;stroke-dashoffset:0;stroke-opacity:1"
         d="m 230.39385,214.1123 2.61652,-1.08575 1.11287,-0.75332 1.12382,-1.42415 1.53347,-0.89185 1.53269,-1.06328 1.38814,-1.74333 0.73785,-2.41115 0.88915,-2.11928 1.16713,-2.21223 1.74135,-1.35644 0.0706,-0.97279 0.785,-1.03987 1.15642,-0.41511 1.12469,-0.59753 1.43982,-0.20149 1.82775,-0.1069 1.68679,0.15157 1.81247,0.77786 2.30302,0.21351 1.15161,-0.74247 1.48786,-1.02352 0.35708,-1.2205 0.54146,-0.67805 1.06699,-0.73057 1.409,-0.64323 1.62856,-0.97171 1.68605,-0.57797"
         id="path853"
         sodipodi:nodetypes="cccccccccccccccccccccccccccc" />
      <path
         style="fill:none;stroke:#000000;stroke-width:1.5;stroke-linecap:butt;stroke-linejoin:round;stroke-miterlimit:4;stroke-dasharray:none;stroke-dashoffset:0;stroke-opacity:1"
         d="m 266.51434,247.82013 2.73412,-2.93944 -0.0792,-1.79264 v -1.20348 l 0.84251,-1.46532 1.39179,-0.63701 1.67985,-0.50829 1.46548,-0.93184 1.09445,-0.47332 1.67725,-0.21453 0.94261,-1.04727 0.85443,-1.16248 1.2555,-0.7911 2.8339,-0.95531 h 1.51993 l 1.74213,0.11377 1.51798,0.54052 2.19574,0.50106 2.01012,0.19736 1.27137,0.38942 1.34087,0.68537 1.00118,0.26977 1.31262,-0.004 1.3518,-0.20879 0.68544,-0.70493 2.34647,-1.88835"
         id="path891"
         sodipodi:nodetypes="cccccccccccccccccccccccccc" />
      <path
         style="fill:none;stroke:#000000;stroke-width:1.5;stroke-linecap:butt;stroke-linejoin:round;stroke-miterlimit:4;stroke-dasharray:none;stroke-dashoffset:0;stroke-opacity:1"
         d="m 262.00257,326.93016 3.0236,-1.9128 1.08934,-0.92599 1.38258,-1.24445 h 1.34306 l 0.0737,-1.65761 1.19135,-0.64308 1.43118,-1.0434 0.4645,-1.70539 1.25304,-0.0573 0.89868,-1.83963 2.22535,-1.65941 1.2667,-1.58292 -0.81834,-1.11776 -1.01505,-0.22246 -0.71921,-1.36382 -0.65367,-1.60875 -0.20983,-1.61807 -0.19275,-1.94271 -0.37631,-2.66632 v -2.30903 l -0.14044,-1.71698 0.58926,-1.52846 0.40876,-1.99284 0.42747,-1.30212 0.87481,-1.24743 1.03161,-1.068 0.58339,-1.12857 0.61526,-1.69546 0.88732,-0.58776 1.28857,-0.53824 0.9587,-1.21598 0.78194,-0.79355 1.33515,-0.74568 0.7982,-1.20169 1.02276,-1.05698 2.19051,-1.2857 0.79516,-1.73987 1.19044,-1.37375 v -0.9667 l 0.86317,-1.43822 0.82308,-1.2966 0.35386,-1.84702 -0.095,-2.24661 v -1.81399 -1.26794 l -1.44324,-0.0952 0.20523,-1.83573 -0.20112,-1.60618 -0.0492,-1.14344 -0.49896,-1.3292 -0.0879,-1.98417 -0.21453,-1.7349 -0.0696,-1.21842 -0.59249,-1.10475 -0.0878,-1.27363 0.0584,-2.06967 -0.18076,-2.31177 1.55192,-0.16107 1.2523,-0.22912 0.68332,-0.26173 1.29499,-0.62284 0.83171,-0.35095 1.11777,-1.06483 0.86941,-0.58101 1.53703,-0.83717 1.71303,-0.68882 0.37624,-1.5948 2.00833,-0.48326 1.53624,-1.22856 0.77957,-0.75574 0.45794,-0.88668 1.95398,-2.30327"
         id="path893"
         sodipodi:nodetypes="ccccccccccccccccccccccccccccccccccccccccccccccccccccccccccccccccccccccccc" />
      <path
         style="fill:none;stroke:#000000;stroke-width:1.5;stroke-linecap:butt;stroke-linejoin:round;stroke-miterlimit:4;stroke-dasharray:none;stroke-dashoffset:0;stroke-opacity:1"
         d="m 289.29936,277.5902 3.86167,0.4424 1.96537,-0.29693 0.74181,1.31587 0.14956,2.28663 0.57852,1.37182 0.78293,1.78042 0.66481,1.37213 1.67091,0.44726 0.0788,1.64676 1.40322,-1.06695 0.81149,-1.05272 1.34492,-2.34682 1.75127,0.58372 2.48975,1.53752 1.68029,0.97687 1.90835,0.8383 1.15574,2.47801 1.46284,0.74623 1.15922,-0.31225 1.88575,0.0543 2.34219,-0.4086 1.75994,-0.59226 1.34304,-0.88341 1.01557,-0.73785 1.82071,-2.85898 1.14982,-1.83102 v -1.63916 l 0.92408,-1.8376 0.52096,-1.59203 0.15463,-1.53106 0.86156,-1.93852 1.37476,-1.09549 0.30339,-1.47088 1.0097,-1.02797 1.97322,-1.06908"
         id="path895"
         sodipodi:nodetypes="cccccccccccccccccccccccccccccccccccc" />
      <path
         style="fill:none;stroke:#000000;stroke-width:1.5;stroke-linecap:butt;stroke-linejoin:round;stroke-miterlimit:4;stroke-dasharray:none;stroke-dashoffset:0;stroke-opacity:1"
         d="m 277.64565,312.65818 2.40978,-1.03795 1.53088,-0.20098 1.41584,-0.86143 1.77492,0.0629 1.40051,0.42422 h 2.01269 l 1.50512,0.6199 2.04975,0.13189 1.12433,0.08 2.1585,-0.0881 0.13543,1.28649 0.27869,0.9907 0.92724,1.11899 0.83248,1.30219 1.18953,0.5875 1.43149,0.96006 2.67603,0.78013 2.33185,0.91781 2.66828,0.0784 1.85715,0.21208 0.0167,0.94566 2.69214,-0.30655 1.58126,0.9079 2.54266,0.3292 1.53524,0.88043 2.06783,0.67983 2.11379,0.40704 1.9005,0.42032 1.15313,1.22093 1.24184,-0.48651 1.92617,-0.01 0.96843,-1.16561 2.12131,-0.93057 1.8036,-0.0156 0.20945,-1.11326 1.89807,-0.13705 0.75435,-1.00414 0.76128,-0.91769 1.53192,-0.88249 1.23154,-1.0149 0.81941,-1.04176 1.67442,-0.63929 1.9074,-0.39326 1.52425,-0.85507 1.94186,-1.13508 1.9828,-0.0417 2.02159,-0.12587"
         id="path897"
         sodipodi:nodetypes="cccccccccccccccccccccccccccccccccccccccccccccccc" />
      <path
         style="fill:none;stroke:#000000;stroke-width:1.5;stroke-linecap:butt;stroke-linejoin:round;stroke-miterlimit:4;stroke-dasharray:none;stroke-dashoffset:0;stroke-opacity:1"
         d="m 284.32665,334.0336 3.48668,-1.40463 1.47158,-0.6068 1.42639,-1.21244 2.06204,-1.46475 1.17016,-0.19124 2.13205,-1.15382 2.2695,-0.43928 1.70572,0.42825 2.89626,0.61842 2.09827,0.22062 2.28037,0.10121 2.93121,0.92752 1.99849,0.82088 1.90253,0.12781 1.68027,0.96806 1.35211,1.47041 1.46109,-1.57191 1.80878,1.2726 1.06958,-1.07706 1.66447,0.0777 0.92799,-1.10869 1.32274,-1.06313 1.09891,-1.2909 0.84518,-1.27053 0.73838,-2.20069"
         id="path899"
         sodipodi:nodetypes="cccccccccccccccccccccccccc" />
      <path
         style="fill:none;stroke:#000000;stroke-width:1.5;stroke-linecap:butt;stroke-linejoin:round;stroke-miterlimit:4;stroke-dasharray:none;stroke-dashoffset:0;stroke-opacity:1"
         d="m 317.19028,333.24382 -3.92635,0.41558 -1.46571,1.05014 -0.47669,0.28726 -1.40118,2.18951 2.47765,0.85642 1.86672,0.913 1.40647,0.56613 1.28924,0.80039 1.74825,0.22036 0.97223,0.43822 2.17847,-0.2835 1.15392,-0.25168 1.97073,-0.48403 1.93527,-0.15922 1.17678,0.66349 0.43266,1.43296 1.74304,-0.37965 1.12301,2.5297 0.58005,1.39439 0.26112,1.65624 -0.14412,1.59854 -1.04263,2.26035 -2.01668,1.03907 -2.61538,0.38458 -2.23571,0.4551 -2.57518,0.0377 -1.11608,0.79402 h -1.43595 l -0.91167,1.02155 -1.92915,-0.21936 -0.0761,1.66957 -1.02797,0.344 -0.99143,0.4249 -0.97993,0.92112 -1.39304,0.41928 -1.76698,0.61838 -1.85519,-0.0841 -1.55399,-1.63767 -1.40901,-2.22048 -1.69315,-1.30428 -2.06531,-0.3354 -2.01459,-0.45805 -1.73755,0.0452 -1.54227,-0.063 -1.56507,0.92022 -2.32926,0.29388 h -1.47489 l -1.46782,0.44437 -1.07084,-0.13751 -0.74429,-0.87784 -1.01694,-1.76765 -1.32746,-0.99751 -1.15981,0.65798 -0.36296,-1.20737 -1.32159,-1.3195 -1.15237,-1.30237 -1.2885,-0.55599 -0.72947,-1.6135 -1.28636,-1.2673"
         id="path901"
         sodipodi:nodetypes="cccccccccccccccccccccccccccccccccccccccccccccccccccccccccccc" />
      <path
         style="fill:none;stroke:#000000;stroke-width:1.5;stroke-linecap:butt;stroke-linejoin:round;stroke-miterlimit:4;stroke-dasharray:none;stroke-dashoffset:0;stroke-opacity:1"
         d="m 272.21818,395.9304 2.92078,-2.53143 1.44981,-1.06552 1.74802,-1.49083 2.98069,-0.23887 2.27665,-0.73407 1.94553,0.13497 2.59672,-0.0915 2.16961,-0.19994 2.39458,1.12165 1.63085,1.4169 1.54363,0.49688 2.33949,-0.27124 1.77979,0.28629 1.53944,0.11315 2.04471,-1.04357 1.16962,0.85164 2.81993,-0.80929 0.77949,1.9541 2.22563,0.33099 1.53527,0.83072 1.79992,0.3034 1.15795,0.39902 3.63237,1.05248"
         id="path903"
         sodipodi:nodetypes="cccccccccccccccccccccccc" />
      <path
         style="fill:none;stroke:#000000;stroke-width:1.5;stroke-linecap:butt;stroke-linejoin:round;stroke-miterlimit:4;stroke-dasharray:none;stroke-opacity:1"
         d="m 325.214,396.70624 0.82749,-1.9008 1.18576,-1.40636 0.67505,-1.3195 1.0795,-0.76779 0.14233,-1.40574 1.0376,-1.18664 2.06666,-0.63225 1.05938,-0.48957 0.94293,-0.72206 1.19463,-0.2151 0.32015,-1.56002 1.19623,-1.95525 0.27522,-1.1675 0.18772,-0.91628 0.3704,-1.97868 0.14615,-1.72299 0.47536,-1.98612 -0.0373,-2.29924 0.0902,-2.55848 -1.25892,-1.62789 -0.91681,-2.08029 -0.95229,-2.05285 -0.24789,-2.28238 0.0652,-1.96604 v -1.31959 l 1.15229,-1.43677 0.95578,-0.91052 0.50251,-1.62712 0.87347,-1.49035 -1.06745,-1.19012 -1.11484,-0.20938 -1.41634,0.24952 -0.34532,1.37141 -1.61155,-0.35011 -0.93158,-0.78644 -1.08645,-1.84853"
         id="path905" />
      <path
         style="fill:none;stroke:#000000;stroke-width:1.5;stroke-linecap:butt;stroke-linejoin:round;stroke-miterlimit:4;stroke-dasharray:none;stroke-opacity:1"
         d="m 263.48362,349.69213 2.02403,1.22067 0.0575,1.17882 1.72402,0.47569 0.50415,1.67681 0.62067,0.7771 1.34098,1.5277 1.61918,1.593 1.04513,1.72092 1.85161,2.15906 1.97982,1.98587 2.06405,0.82372 0.023,1.23512 1.86479,-0.2687 0.80172,1.12125 1.26395,0.67206 1.14809,1.04384 v 1.19768 l -0.3189,2.2269 0.53997,1.58823 1.64938,1.94518 1.05738,1.32867 0.84778,1.30173 1.75134,1.58319 1.33712,2.025 2.14541,1.29587 1.56893,1.22285 1.61942,-0.33572 1.61984,0.68024 1.90038,1.12932 1.04237,0.74577 1.51099,0.0787 0.66655,1.30514 2.00317,0.57818 1.19541,0.64669 0.94302,-0.60933 0.35124,-1.10667 1.56559,0.38637 1.87965,-0.79427 1.27341,0.4205 2.00532,0.1503 2.64587,-0.0172 2.32835,0.34811 2.68804,0.14796 2.12831,0.44357 2.08877,0.33504 1.89643,0.76396 1.77725,0.25906"
         id="path907" />
      <path
         style="fill:none;stroke:#000000;stroke-width:1.5;stroke-linecap:butt;stroke-linejoin:round;stroke-miterlimit:4;stroke-dasharray:none;stroke-opacity:1"
         d="m 356.34686,427.69932 1.75443,-2.11813 1.27417,-1.7967 0.51085,-2.08667 1.61019,0.21107 1.99951,1.28206 2.25373,-1.21814 1.81672,-1.02741 1.48103,-1.21008 1.67719,-0.65046 1.55098,-0.26409 2.2472,-0.0784 2.06029,0.94763 1.91553,0.42344 -0.2323,0.96811 1.94756,0.0401 0.33847,-1.29266 0.90228,-0.63384 1.75553,-1.07624 0.19452,-2.6539 0.15091,-2.76335 0.63952,-2.59307 0.9195,-2.21182 0.98131,-2.35196 2.24227,-1.25679 1.92839,-0.99069 1.42852,-1.41412 1.87271,-0.27786 1.92912,-0.73751 1.79815,-0.81698 2.08112,0.19285 1.47544,0.48644 1.31555,1.47078 1.93739,0.46896 3.02694,0.75768 0.31298,1.65748 1.31152,0.80482 1.16559,0.62371 1.86328,0.13675 1.69255,-0.0818 2.07121,0.60978 v 1.27562 l 1.00239,1.27961 1.15298,0.84406 0.84138,0.87844 0.72643,0.93659 0.31796,1.35677 1.37132,0.35956 0.31047,1.80894 1.20053,0.97969 0.60301,1.45821 0.88767,1.3006 0.42893,1.26069 -0.009,1.41769 1.15291,1.73933 1.45903,2.27547 1.64521,3.03274 1.73992,1.49644 1.32013,1.24875 1.7982,0.68297 1.6637,2.07766 2.43454,0.78156 1.69448,0.40211 2.1105,-0.15874 1.30368,1.02558 2.56646,0.0569 2.02541,-0.0864 2.20236,0.0283 1.68863,0.19234 2.3422,-0.12769 2.15729,-0.0361 1.5601,-0.67936 1.39066,-0.73589 1.52222,-0.74918 0.98064,-2.00744 1.59896,-1.75942 1.41971,-1.03194 0.16451,-1.60344 1.12646,-1.00739 1.14758,-1.09308 1.40743,-0.31682 1.87916,-1.82002 1.98733,-0.13826 1.37804,-0.19714 3.18803,0.18034 1.60553,0.0124 2.59647,0.1517 1.6152,-0.25763 2.0546,-0.004 1.65621,-0.034 0.61585,-0.7965 1.65076,-0.41202 0.88717,-1.40607 1.52246,-2.36178 0.96525,-1.43949 0.90891,-2.0938 1.44704,-2.19608 1.45217,-1.24469 1.15892,-1.04723 0.65801,-0.99406 1.75209,-1.60243 1.51367,-1.95912"
         id="path909" />
      <path
         style="fill:none;stroke:#000000;stroke-width:1.5;stroke-linecap:butt;stroke-linejoin:round;stroke-miterlimit:4;stroke-dasharray:none;stroke-opacity:1"
         d="m 426.037,424.87656 1.39233,-1.11252 -0.31193,-1.95335 1.36562,-1.89752 0.68376,-1.50078 0.0558,-1.6247 1.05086,-1.96693 0.0477,-2.02615 -0.19714,-1.92359 0.0839,-1.85589 -0.42968,-2.32261 -0.2271,-1.857 1.5092,-1.23416 2.53567,-0.52045 -1.52627,-0.9366 0.4484,-1.89151 0.9223,-1.50709 0.73495,-2.91159 0.11816,-2.33613 0.12356,-1.46691 -0.48728,-1.44391 -0.55422,-0.47748 -0.13181,-1.57398 0.01,-2.00444 -0.92649,0.11655 -0.19814,-2.1518 0.16708,-1.22457 0.20905,-1.02939"
         id="path911" />
      <path
         style="fill:none;stroke:#000000;stroke-width:1.5;stroke-linecap:butt;stroke-linejoin:round;stroke-miterlimit:4;stroke-dasharray:none;stroke-opacity:1"
         d="m 443.49409,481.95181 -0.20097,-2.68241 -0.10206,-2.74854 0.38212,-1.93527 -0.35551,-1.48637 -1.08187,-2.32164 0.21364,-1.54319 -0.29297,-1.65867 v -1.81315 l 0.34435,-1.63307 v -1.34043 l -1.16249,-2.10513 -1.49965,-1.2246 -1.51728,-1.53136 -1.75235,-2.07226 -1.27082,-3.00916 -1.37654,-1.8822 -0.78334,-2.16762 -1.18462,-1.97035 -0.4551,-1.86246 -0.44168,-1.95249 2.18755,-1.04045 2.33736,-0.22089 1.47229,-0.77005 1.29823,-1.27664 1.03852,-3.6316"
         id="path913" />
      <path
         style="fill:none;stroke:#000000;stroke-width:1.5;stroke-linecap:butt;stroke-linejoin:round;stroke-miterlimit:4;stroke-dasharray:none;stroke-opacity:1"
         d="m 460.80089,500.19645 1.43587,-1.77012 1.45039,0.58661 1.59048,0.4393 2.55515,0.51149 2.3935,0.67495 2.02591,-0.72725 1.15078,-2.04548 1.87172,-0.95268 1.9436,-1.25803 2.28783,-0.21927 2.90467,0.61052 1.91353,-0.15873 1.87053,0.0768 2.29222,0.1 2.02675,0.0722 -0.0979,-1.3838 h 1.83764 l 1.86151,0.92796 2.15753,0.70734 1.96217,-0.0622 2.52614,-0.77533 2.69722,-1.65257 1.89592,-2.76752 1.12758,-1.4924 -0.0647,-1.34714 0.8319,-1.31235 0.3131,-1.63362 0.56104,-1.62693 0.23343,-1.84346 -0.0665,-2.08047 -0.3255,-2.35274 -0.40116,-1.3624 -0.19384,-1.98811 -1.39187,-2.20067 -0.81493,-1.96239 1.03632,-3.21527 1.94727,-1.13675 1.09674,-1.21149 0.91673,-1.55046 0.33238,-1.91012 -1.51822,-1.01713 -2.00936,-1.13501 -2.55697,-0.86838 -2.09387,-0.99857 -1.09104,-1.03551 0.14525,-2.14027 0.42422,-1.83765 -0.0281,-2.11826 0.35004,-1.61611 0.0582,-1.84503 -0.0404,-1.33776 0.16164,-2.24094 -0.0741,-1.07202 -0.0953,-1.19376 0.84034,-1.16152 0.76861,-0.63948 1.51836,-0.7117 0.71174,-0.82683 0.66004,-0.88837 0.77395,-0.56931 0.9249,-1.84322 -0.0858,-1.68469 0.0269,-1.72902 v -1.45604 l -0.94747,-1.34453 -0.68265,-1.18749 -0.34818,-1.17388 -0.10726,-1.49614 1.47579,-1.00808 1.0618,-1.28292 1.25167,-1.70792"
         id="path915" />
      <g
         id="g1381"
         transform="matrix(1.6259595,0,0,1.6259595,-126.66799,-283.92227)">
        <path
           d="m 314.65432,249.85561 15.81213,14.73948 -0.46061,-6.12042 z"
           fill="#00d4ff"
           fill-rule="evenodd"
           stroke="#000000"
           stroke-width="0.189291"
           stroke-linecap="square"
           id="path1021"
           style="fill:#ffffff" />
        <path
           d="m 345.19331,248.76403 -14.71424,15.83737 -0.44799,-6.11411 15.16223,-9.71695 z"
           fill="#0092ff"
           fill-rule="evenodd"
           stroke="#000000"
           stroke-width="0.189291"
           stroke-linecap="square"
           id="path1023"
           style="fill:#000000" />
        <path
           d="m 314.69218,249.83037 15.78689,14.76472 -6.11411,0.43537 z m 1.01586,30.55161 14.77103,-15.78058 0.42906,6.10779 z m 30.55792,-1.01587 -15.78689,-14.76471 6.1141,-0.43537 9.67279,15.20639 z"
           fill="#0092ff"
           fill-rule="evenodd"
           stroke="#000000"
           stroke-width="0.189291"
           stroke-linecap="square"
           id="path1025"
           style="fill:#000000" />
        <path
           d="m 345.20592,248.78296 -14.73947,15.81213 6.12041,-0.4543 z"
           fill="#00d4ff"
           fill-rule="evenodd"
           stroke="#000000"
           stroke-width="0.189291"
           stroke-linecap="square"
           id="path1027"
           style="fill:#ffffff" />
        <path
           d="m 346.27858,279.34087 -15.81213,-14.75209 0.46061,6.12041 z m -30.55161,1.07265 14.73948,-15.82474 -6.12042,0.4606 -8.61906,15.35152 z"
           fill="#00d4ff"
           fill-rule="evenodd"
           stroke="#000000"
           stroke-width="0.189291"
           stroke-linecap="square"
           id="path1029"
           style="fill:#ffffff" />
        <path
           d="m 305.44215,264.57616 25.01799,0.0126 -5.21813,-4.82693 -19.79986,4.808 z"
           fill="#a8dbdb"
           id="path1031"
           style="fill:#ffffff;fill-rule:evenodd;stroke:#000000;stroke-width:0.189291;stroke-linecap:square" />
        <path
           d="m 330.45383,239.56447 0.0189,25.018 -5.1992,-4.82062 5.18027,-20.19107 z m -24.99907,24.94859 25.018,0.0694 -4.83955,5.18658 -20.17845,-5.24968 z m 24.94859,25.0874 0.0694,-25.01799 5.18658,4.83954 -5.24968,20.17845 z m 25.0874,-24.9549 -25.01799,-0.0631 4.83954,-5.18658 z"
           fill="#0700d6"
           id="path1033"
           style="fill:#000000;fill-rule:evenodd;stroke:#000000;stroke-width:0.189291;stroke-linecap:square" />
        <path
           d="m 330.47907,239.57078 -0.0189,25.018 4.82692,-5.21182 z m 24.99906,25.03693 -25.01799,-0.0189 5.21182,4.82692 z m -25.03692,24.99906 0.0189,-25.01799 -4.82693,5.21812 z"
           fill="#a8dbdb"
           id="path1035"
           style="fill:#ffffff;fill-rule:evenodd;stroke:#000000;stroke-width:0.189291;stroke-linecap:square" />
        <g
           font-size="12px"
           font-weight="700"
           font-family="Arial"
           id="g1047"
           transform="matrix(0.6309708,0,0,0.6309708,297.34048,231.00851)">
          <text
             x="517.84998"
             y="537.13"
             style="line-height:125%;text-align:start"
             transform="translate(-422.24,-480.33)"
             id="text1041"><tspan
               x="517.84998"
               y="537.13"
               id="tspan1039"
               style="font-style:normal;font-variant:normal;font-weight:bold;font-stretch:normal;font-family:Cochineal;-inkscape-font-specification:'Cochineal Bold'">E</tspan></text>
          <text
             x="423.70999"
             y="537.84003"
             style="font-style:normal;font-variant:normal;font-weight:bold;font-stretch:normal;font-size:12px;line-height:125%;font-family:Cochineal;-inkscape-font-specification:'Cochineal, Bold';font-variant-ligatures:normal;font-variant-caps:normal;font-variant-numeric:normal;font-variant-east-asian:normal;text-align:start"
             transform="translate(-422.24,-480.33)"
             id="text1045"><tspan
               x="423.70999"
               y="537.84003"
               id="tspan1043"
               style="font-style:normal;font-variant:normal;font-weight:bold;font-stretch:normal;font-size:12px;font-family:Cochineal;-inkscape-font-specification:'Cochineal, Bold';font-variant-ligatures:normal;font-variant-caps:normal;font-variant-numeric:normal;font-variant-east-asian:normal">O</tspan></text>
        </g>
        <text
           x="327.75327"
           y="236.90178"
           style="font-style:normal;font-variant:normal;font-weight:bold;font-stretch:normal;font-size:7.57165px;line-height:125%;font-family:Cochineal;-inkscape-font-specification:'Cochineal, Bold';font-variant-ligatures:normal;font-variant-caps:normal;font-variant-numeric:normal;font-variant-east-asian:normal;text-align:start;stroke-width:0.630971"
           id="text1051"><tspan
             x="327.75327"
             y="236.90178"
             style="font-style:normal;font-variant:normal;font-weight:bold;font-stretch:normal;font-size:7.57165px;line-height:125%;font-family:Cochineal;-inkscape-font-specification:'Cochineal, Bold';font-variant-ligatures:normal;font-variant-caps:normal;font-variant-numeric:normal;font-variant-east-asian:normal;text-align:start;stroke-width:0.630971"
             id="tspan1049">N</tspan></text>
        <text
           x="327.99304"
           y="296.68625"
           style="font-style:normal;font-variant:normal;font-weight:bold;font-stretch:normal;font-size:7.57165px;line-height:125%;font-family:Cochineal;-inkscape-font-specification:'Cochineal, Bold';font-variant-ligatures:normal;font-variant-caps:normal;font-variant-numeric:normal;font-variant-east-asian:normal;text-align:start;stroke-width:0.630971"
           id="text1055"><tspan
             x="327.99304"
             y="296.68625"
             id="tspan1053"
             style="font-style:normal;font-variant:normal;font-weight:bold;font-stretch:normal;font-size:7.57165px;font-family:Cochineal;-inkscape-font-specification:'Cochineal, Bold';font-variant-ligatures:normal;font-variant-caps:normal;font-variant-numeric:normal;font-variant-east-asian:normal;stroke-width:0.630971">S</tspan></text>
        <text
           x="306.63467"
           y="247.53365"
           style="font-style:normal;font-variant:normal;font-weight:normal;font-stretch:normal;font-size:5.67874px;line-height:125%;font-family:Cochineal;-inkscape-font-specification:'Cochineal, Normal';font-variant-ligatures:normal;font-variant-caps:normal;font-variant-numeric:normal;font-variant-east-asian:normal;text-align:start;stroke-width:0.630971"
           id="text1061"><tspan
             x="306.63467"
             y="247.53365"
             id="tspan1059"
             style="font-style:normal;font-variant:normal;font-weight:normal;font-stretch:normal;font-size:5.67874px;font-family:Cochineal;-inkscape-font-specification:'Cochineal, Normal';font-variant-ligatures:normal;font-variant-caps:normal;font-variant-numeric:normal;font-variant-east-asian:normal;stroke-width:0.630971">NO</tspan></text>
        <text
           x="346.2912"
           y="247.53365"
           style="font-style:normal;font-variant:normal;font-weight:normal;font-stretch:normal;font-size:5.67874px;line-height:125%;font-family:Cochineal;-inkscape-font-specification:'Cochineal, Normal';font-variant-ligatures:normal;font-variant-caps:normal;font-variant-numeric:normal;font-variant-east-asian:normal;text-align:start;stroke-width:0.630971"
           id="text1065"><tspan
             x="346.2912"
             y="247.53365"
             style="font-style:normal;font-variant:normal;font-weight:normal;font-stretch:normal;font-size:5.67874px;line-height:125%;font-family:Cochineal;-inkscape-font-specification:'Cochineal, Normal';font-variant-ligatures:normal;font-variant-caps:normal;font-variant-numeric:normal;font-variant-east-asian:normal;text-align:start;stroke-width:0.630971"
             id="tspan1063">NE</tspan></text>
        <text
           x="346.53098"
           y="285.70737"
           style="font-style:normal;font-variant:normal;font-weight:normal;font-stretch:normal;font-size:5.67874px;line-height:125%;font-family:Cochineal;-inkscape-font-specification:'Cochineal, Normal';font-variant-ligatures:normal;font-variant-caps:normal;font-variant-numeric:normal;font-variant-east-asian:normal;text-align:start;stroke-width:0.630971"
           id="text1069"><tspan
             x="346.53098"
             y="285.70737"
             id="tspan1067"
             style="font-style:normal;font-variant:normal;font-weight:normal;font-stretch:normal;font-size:5.67874px;font-family:Cochineal;-inkscape-font-specification:'Cochineal, Normal';font-variant-ligatures:normal;font-variant-caps:normal;font-variant-numeric:normal;font-variant-east-asian:normal;stroke-width:0.630971">SE</tspan></text>
        <text
           x="306.88077"
           y="285.70737"
           style="font-style:normal;font-variant:normal;font-weight:normal;font-stretch:normal;font-size:5.67874px;line-height:125%;font-family:Cochineal;-inkscape-font-specification:'Cochineal, Normal';font-variant-ligatures:normal;font-variant-caps:normal;font-variant-numeric:normal;font-variant-east-asian:normal;text-align:start;stroke-width:0.630971"
           id="text1073"><tspan
             x="306.88077"
             y="285.70737"
             style="font-style:normal;font-variant:normal;font-weight:normal;font-stretch:normal;font-size:5.67874px;line-height:125%;font-family:Cochineal;-inkscape-font-specification:'Cochineal, Normal';font-variant-ligatures:normal;font-variant-caps:normal;font-variant-numeric:normal;font-variant-east-asian:normal;text-align:start;stroke-width:0.630971"
             id="tspan1071">SO</tspan></text>
      </g>
      <text
         xml:space="preserve"
         id="text1383"
         style="font-style:normal;font-variant:normal;font-weight:bold;font-stretch:normal;font-size:18.6667px;line-height:1.25;font-family:Cochineal;-inkscape-font-specification:'Cochineal Bold';white-space:pre;shape-inside:url(#rect1385);"
         transform="translate(247.29396,-219.31953)"><tspan
           x="287.32422"
           y="717.01709"><tspan
             style="font-size:18.6667px;shape-inside:url(#rect1385)">17</tspan></tspan></text>
      <text
         xml:space="preserve"
         id="text1383-9"
         style="font-style:normal;font-variant:normal;font-weight:bold;font-stretch:normal;font-size:18.6667px;line-height:1.25;font-family:Cochineal;-inkscape-font-specification:'Cochineal Bold';white-space:pre;shape-inside:url(#rect1385-3);"
         transform="translate(176.88166,-252.3729)"><tspan
           x="287.32422"
           y="717.01709"><tspan
             style="font-style:normal;font-variant:normal;font-weight:bold;font-stretch:normal;font-size:18.6667px;font-family:Cochineal;-inkscape-font-specification:'Cochineal Bold'">16</tspan></tspan></text>
      <text
         xml:space="preserve"
         id="text1383-5"
         style="font-style:normal;font-variant:normal;font-weight:bold;font-stretch:normal;font-size:18.6667px;line-height:1.25;font-family:Cochineal;-inkscape-font-specification:'Cochineal Bold';white-space:pre;shape-inside:url(#rect1385-4);"
         transform="translate(105.37316,-283.15634)"><tspan
           x="287.32422"
           y="717.01709"><tspan
             style="font-style:normal;font-variant:normal;font-weight:bold;font-stretch:normal;font-size:18.6667px;font-family:Cochineal;-inkscape-font-specification:'Cochineal Bold'">15</tspan></tspan></text>
      <text
         xml:space="preserve"
         id="text1383-54"
         style="font-style:normal;font-variant:normal;font-weight:bold;font-stretch:normal;font-size:18.6667px;line-height:1.25;font-family:Cochineal;-inkscape-font-specification:'Cochineal Bold';white-space:pre;shape-inside:url(#rect1385-41);"
         transform="translate(161.99884,-302.14696)"><tspan
           x="287.32422"
           y="717.01709"><tspan
             style="font-style:normal;font-variant:normal;font-weight:bold;font-stretch:normal;font-size:18.6667px;font-family:Cochineal;-inkscape-font-specification:'Cochineal Bold'">18</tspan></tspan></text>
      <text
         xml:space="preserve"
         id="text1383-3"
         style="font-style:normal;font-variant:normal;font-weight:bold;font-stretch:normal;font-size:18.6667px;line-height:1.25;font-family:Cochineal;-inkscape-font-specification:'Cochineal Bold';white-space:pre;shape-inside:url(#rect1385-9);"
         transform="translate(68.003483,-336.39709)"><tspan
           x="287.32422"
           y="717.01709"><tspan
             style="font-style:normal;font-variant:normal;font-weight:bold;font-stretch:normal;font-size:18.6667px;font-family:Cochineal;-inkscape-font-specification:'Cochineal Bold'">11</tspan></tspan></text>
      <text
         xml:space="preserve"
         id="text1383-2"
         style="font-style:normal;font-variant:normal;font-weight:bold;font-stretch:normal;font-size:18.6667px;line-height:1.25;font-family:Cochineal;-inkscape-font-specification:'Cochineal Bold';white-space:pre;shape-inside:url(#rect1385-8);"
         transform="translate(15.24846,-338.97323)"><tspan
           x="287.32422"
           y="717.01709"><tspan
             style="font-style:normal;font-variant:normal;font-weight:bold;font-stretch:normal;font-size:18.6667px;font-family:Cochineal;-inkscape-font-specification:'Cochineal Bold'">12</tspan></tspan></text>
      <text
         xml:space="preserve"
         id="text1383-0"
         style="font-style:normal;font-variant:normal;font-weight:bold;font-stretch:normal;font-size:18.6667px;line-height:1.25;font-family:Cochineal;-inkscape-font-specification:'Cochineal Bold';white-space:pre;shape-inside:url(#rect1385-2);"
         transform="translate(-0.41505,-310.04491)"><tspan
           x="287.32422"
           y="717.01709"><tspan
             style="font-style:normal;font-variant:normal;font-weight:bold;font-stretch:normal;font-size:18.6667px;font-family:Cochineal;-inkscape-font-specification:'Cochineal Bold'">14</tspan></tspan></text>
      <text
         xml:space="preserve"
         id="text1383-36"
         style="font-style:normal;font-variant:normal;font-weight:bold;font-stretch:normal;font-size:18.6667px;line-height:1.25;font-family:Cochineal;-inkscape-font-specification:'Cochineal Bold';white-space:pre;shape-inside:url(#rect1385-34);"
         transform="translate(-25.885514,-333.51045)"><tspan
           x="287.32422"
           y="717.01709"><tspan
             style="font-style:normal;font-variant:normal;font-weight:bold;font-stretch:normal;font-size:18.6667px;font-family:Cochineal;-inkscape-font-specification:'Cochineal Bold'">13</tspan></tspan></text>
      <text
         xml:space="preserve"
         id="text1383-4"
         style="font-style:normal;font-variant:normal;font-weight:bold;font-stretch:normal;font-size:18.6667px;line-height:1.25;font-family:Cochineal;-inkscape-font-specification:'Cochineal Bold';white-space:pre;shape-inside:url(#rect1385-33);"
         transform="translate(0.09518,-370.26818)"><tspan
           x="287.32422"
           y="717.01709"><tspan
             style="font-style:normal;font-variant:normal;font-weight:bold;font-stretch:normal;font-size:18.6667px;font-family:Cochineal;-inkscape-font-specification:'Cochineal Bold'">10</tspan></tspan></text>
      <text
         xml:space="preserve"
         id="text1383-58"
         style="font-style:normal;font-variant:normal;font-weight:bold;font-stretch:normal;font-size:18.6667px;line-height:1.25;font-family:Cochineal;-inkscape-font-specification:'Cochineal Bold';white-space:pre;shape-inside:url(#rect1385-39);"
         transform="translate(-6.718795,-390.18577)"><tspan
           x="287.32422"
           y="717.01709"><tspan
             style="font-style:normal;font-variant:normal;font-weight:bold;font-stretch:normal;font-size:18.6667px;font-family:Cochineal;-inkscape-font-specification:'Cochineal Bold'">9</tspan></tspan></text>
      <text
         xml:space="preserve"
         id="text1383-47"
         style="font-style:normal;font-variant:normal;font-weight:bold;font-stretch:normal;font-size:18.6667px;line-height:1.25;font-family:Cochineal;-inkscape-font-specification:'Cochineal Bold';white-space:pre;shape-inside:url(#rect1385-90);"
         transform="translate(21.985009,-406.12579)"><tspan
           x="287.32422"
           y="717.01709"><tspan
             style="font-style:normal;font-variant:normal;font-weight:bold;font-stretch:normal;font-size:18.6667px;font-family:Cochineal;-inkscape-font-specification:'Cochineal Bold'">8</tspan></tspan></text>
      <text
         xml:space="preserve"
         id="text1383-1"
         style="font-style:normal;font-variant:normal;font-weight:bold;font-stretch:normal;font-size:18.6667px;line-height:1.25;font-family:Cochineal;-inkscape-font-specification:'Cochineal Bold';white-space:pre;shape-inside:url(#rect1385-6);"
         transform="translate(19.909704,-445.89598)"><tspan
           x="287.32422"
           y="717.01709"><tspan
             style="font-style:normal;font-variant:normal;font-weight:bold;font-stretch:normal;font-size:18.6667px;font-family:Cochineal;-inkscape-font-specification:'Cochineal Bold'">7</tspan></tspan></text>
      <text
         xml:space="preserve"
         id="text1383-10"
         style="font-style:normal;font-variant:normal;font-weight:bold;font-stretch:normal;font-size:18.6667px;line-height:1.25;font-family:Cochineal;-inkscape-font-specification:'Cochineal Bold';white-space:pre;shape-inside:url(#rect1385-333);"
         transform="translate(-24.371824,-432.10154)"><tspan
           x="287.32422"
           y="717.01709"><tspan
             style="font-style:normal;font-variant:normal;font-weight:bold;font-stretch:normal;font-size:18.6667px;font-family:Cochineal;-inkscape-font-specification:'Cochineal Bold'">6</tspan></tspan></text>
      <text
         xml:space="preserve"
         id="text1383-50"
         style="font-style:normal;font-variant:normal;font-weight:bold;font-stretch:normal;font-size:18.6667px;line-height:1.25;font-family:Cochineal;-inkscape-font-specification:'Cochineal Bold';white-space:pre;shape-inside:url(#rect1385-87);"
         transform="translate(-39.372214,-490.02735)"><tspan
           x="287.32422"
           y="717.01709"><tspan
             style="font-style:normal;font-variant:normal;font-weight:bold;font-stretch:normal;font-size:18.6667px;font-family:Cochineal;-inkscape-font-specification:'Cochineal Bold'">5</tspan></tspan></text>
      <text
         xml:space="preserve"
         id="text1383-13"
         style="font-style:normal;font-variant:normal;font-weight:bold;font-stretch:normal;font-size:18.66666667px;line-height:1.25;font-family:Cochineal;-inkscape-font-specification:'Cochineal Bold';white-space:pre;shape-inside:url(#rect1385-80);"
         transform="translate(-65.709704,-545.43465)"><tspan
           x="287.32422"
           y="717.01706"><tspan
             style="font-style:normal;font-variant:normal;font-weight:bold;font-stretch:normal;font-size:18.6667px;font-family:Cochineal;-inkscape-font-specification:'Cochineal Bold'">4</tspan></tspan></text>
      <text
         xml:space="preserve"
         id="text1383-34"
         style="font-style:normal;font-variant:normal;font-weight:bold;font-stretch:normal;font-size:18.6667px;line-height:1.25;font-family:Cochineal;-inkscape-font-specification:'Cochineal Bold';white-space:pre;shape-inside:url(#rect1385-5);"
         transform="translate(-122.00034,-522.21861)"><tspan
           x="287.32422"
           y="717.01709"><tspan
             style="font-style:normal;font-variant:normal;font-weight:bold;font-stretch:normal;font-size:18.6667px;font-family:Cochineal;-inkscape-font-specification:'Cochineal Bold'">3</tspan></tspan></text>
      <text
         xml:space="preserve"
         id="text1383-8"
         style="font-style:normal;font-variant:normal;font-weight:bold;font-stretch:normal;font-size:18.6667px;line-height:1.25;font-family:Cochineal;-inkscape-font-specification:'Cochineal Bold';white-space:pre;shape-inside:url(#rect1385-1);"
         transform="translate(-124.58115,-583.61698)"><tspan
           x="287.32422"
           y="717.01709"><tspan
             style="font-style:normal;font-variant:normal;font-weight:bold;font-stretch:normal;font-size:18.6667px;font-family:Cochineal;-inkscape-font-specification:'Cochineal Bold'">2</tspan></tspan></text>
      <text
         xml:space="preserve"
         id="text1383-99"
         style="font-style:normal;font-variant:normal;font-weight:bold;font-stretch:normal;font-size:18.6667px;line-height:1.25;font-family:Cochineal;-inkscape-font-specification:'Cochineal Bold';white-space:pre;shape-inside:url(#rect1385-35);"
         transform="translate(-109.79018,-640.88836)"><tspan
           x="287.32422"
           y="717.01709"><tspan
             style="font-style:normal;font-variant:normal;font-weight:bold;font-stretch:normal;font-size:18.6667px;font-family:Cochineal;-inkscape-font-specification:'Cochineal Bold'">1</tspan></tspan></text>
      <path
         style="fill:none;stroke:#000000;stroke-width:1.5;stroke-linecap:butt;stroke-linejoin:round;stroke-miterlimit:4;stroke-dasharray:none;stroke-opacity:1"
         d="m 607.48016,517.95732 1.89402,-0.20345 3.10259,-1.97367 2.14431,-0.99319 2.62411,-0.38318"
         id="path1781" />
      <path
         style="fill:none;stroke:#000000;stroke-width:1.5;stroke-linecap:butt;stroke-linejoin:round;stroke-miterlimit:4;stroke-dasharray:none;stroke-opacity:1"
         d="m 580.32393,537.74382 1.69436,1.42883 0.19663,1.66499 0.0534,1.94016 0.35151,2.15617 0.0988,1.89303 0.46681,1.86932"
         id="path1783" />
      <text
         xml:space="preserve"
         id="text1383-508"
         style="font-size:18.6667px;line-height:1.25;font-family:Cochineal;-inkscape-font-specification:'Cochineal, Normal';white-space:pre;shape-inside:url(#rect1385-61);letter-spacing:0.5px;word-spacing:0.5px;"
         transform="translate(302.78556,-249.87555)"><tspan
           x="287.32422"
           y="717.01709"><tspan
             style="font-style:normal;font-variant:normal;font-weight:bold;font-stretch:normal;font-size:18.6667px;font-family:Cochineal;-inkscape-font-specification:'Cochineal Bold'">TABASCO</tspan></tspan></text>
      <text
         xml:space="preserve"
         id="text1383-91"
         style="font-style:normal;font-variant:normal;font-weight:bold;font-stretch:normal;font-size:18.6667px;line-height:1.25;font-family:Cochineal;-inkscape-font-specification:'Cochineal Bold';white-space:pre;shape-inside:url(#rect1385-12);letter-spacing:0.5px;word-spacing:0.5px;"
         transform="translate(305.75456,-174.71337)"><tspan
           x="287.32422"
           y="717.01709"><tspan
             style="font-style:normal;font-variant:normal;font-weight:bold;font-stretch:normal;font-size:18.6667px;font-family:Cochineal;-inkscape-font-specification:'Cochineal Bold'">CHIAPAS</tspan></tspan></text>
      <text
         xml:space="preserve"
         id="text1383-40"
         style="font-style:normal;font-variant:normal;font-weight:bold;font-stretch:normal;font-size:18.6667px;line-height:1.25;font-family:Cochineal;-inkscape-font-specification:'Cochineal Bold';white-space:pre;shape-inside:url(#rect1385-04);letter-spacing:0.5px;word-spacing:0.5px;"
         transform="translate(18.191374,-202.0566)"><tspan
           x="287.32422"
           y="717.01709"><tspan
             style="font-style:normal;font-variant:normal;font-weight:bold;font-stretch:normal;font-size:18.6667px;font-family:Cochineal;-inkscape-font-specification:'Cochineal Bold'">OAXACA</tspan></tspan></text>
      <text
         xml:space="preserve"
         id="text1383-25"
         style="font-style:normal;font-variant:normal;font-weight:bold;font-stretch:normal;font-size:18.6667px;line-height:1.25;font-family:Cochineal;-inkscape-font-specification:'Cochineal Bold';letter-spacing:0.5px;white-space:pre;shape-inside:url(#rect1385-349);word-spacing:0.5px;"
         transform="translate(72.116574,-439.35321)"><tspan
           x="287.32422"
           y="717.01709"><tspan
             dx="0 0 0 0 0 -0.50000477 0.50000548 0 -0.50000286 0.49999785"
             style="font-style:normal;font-variant:normal;font-weight:bold;font-stretch:normal;font-size:18.6667px;font-family:Cochineal;-inkscape-font-specification:'Cochineal Bold'">GOLFO DE MXICO</tspan></tspan></text>
      <text
         xml:space="preserve"
         id="text1383-86"
         style="font-style:normal;font-variant:normal;font-weight:bold;font-stretch:normal;font-size:18.6667px;line-height:1.25;font-family:Cochineal;-inkscape-font-specification:'Cochineal Bold';white-space:pre;shape-inside:url(#rect1385-24);letter-spacing:0.5px;word-spacing:0.5px;"
         transform="translate(-119.68201,-431.56852)"><tspan
           x="287.32422"
           y="717.01709"><tspan
             style="font-style:normal;font-variant:normal;font-weight:bold;font-stretch:normal;font-size:18.6667px;font-family:Cochineal;-inkscape-font-specification:'Cochineal Bold'">PUEBLA</tspan></tspan></text>
      <text
         xml:space="preserve"
         id="text1383-23"
         style="font-style:normal;font-variant:normal;font-weight:bold;font-stretch:normal;font-size:18.6667px;line-height:1.25;font-family:Cochineal;-inkscape-font-specification:'Cochineal Bold';letter-spacing:0.5px;word-spacing:0.5px;white-space:pre;shape-inside:url(#rect1385-08);"
         transform="translate(-226.52211,-542.59805)"><tspan
           x="287.32422"
           y="717.01709"><tspan
             style="font-style:normal;font-variant:normal;font-weight:bold;font-stretch:normal;font-size:18.6667px;font-family:Cochineal;-inkscape-font-specification:'Cochineal Bold'">HIDALGO</tspan></tspan></text>
      <text
         xml:space="preserve"
         id="text1383-23-4"
         style="font-style:normal;font-variant:normal;font-weight:bold;font-stretch:normal;font-size:18.6667px;line-height:1.25;font-family:Cochineal;-inkscape-font-specification:'Cochineal Bold';letter-spacing:0.5px;word-spacing:0.5px;white-space:pre;shape-inside:url(#rect1385-08-2);"
         transform="translate(-315.95088,-657.12219)"><tspan
           x="287.32422"
           y="717.01709"><tspan
             dx="0 0 0 -0.49999905 0.49999785 0 0 0 -0.5 0.49999785"
             style="font-size:18.6667px">SAN LUIS POTOS</tspan></tspan></text>
      <text
         xml:space="preserve"
         id="text1383-23-7"
         style="font-style:normal;font-variant:normal;font-weight:bold;font-stretch:normal;font-size:18.6667px;line-height:1.25;font-family:Cochineal;-inkscape-font-specification:'Cochineal Bold';letter-spacing:0.5px;word-spacing:0.5px;white-space:pre;shape-inside:url(#rect1385-08-5);"
         transform="translate(-181.75834,-705.47038)"><tspan
           x="287.32422"
           y="717.01709"><tspan
             style="font-size:18.6667px">TAMAULIPAS</tspan></tspan></text>
      <g
         id="g591"
         transform="translate(4.54051,-6.070058)">
        <text
           xml:space="preserve"
           id="text1383-23-9"
           style="font-style:normal;font-variant:normal;font-weight:bold;font-stretch:normal;font-size:18.6667px;line-height:1.25;font-family:Cochineal;-inkscape-font-specification:'Cochineal Bold';white-space:pre;shape-inside:url(#rect1385-08-57);"
           transform="translate(-309.49378,-476.00447)"><tspan
             x="287.32422"
             y="717.01709"><tspan
               style="font-style:normal;font-variant:normal;font-weight:bold;font-stretch:normal;font-size:18.6667px;font-family:Cochineal;-inkscape-font-specification:'Cochineal Bold'">
</tspan></tspan><tspan
             x="287.32422"
             y="740.35046"><tspan
               style="font-style:normal;font-variant:normal;font-weight:bold;font-stretch:normal;font-size:18.6667px;font-family:Cochineal;-inkscape-font-specification:'Cochineal Bold'">1. Ozualama
</tspan></tspan><tspan
             x="287.32422"
             y="763.68383"><tspan
               style="font-style:normal;font-variant:normal;font-weight:bold;font-stretch:normal;font-size:18.6667px;font-family:Cochineal;-inkscape-font-specification:'Cochineal Bold'">2. Tantoyuca
</tspan></tspan><tspan
             x="287.32422"
             y="787.01721"><tspan
               style="font-style:normal;font-variant:normal;font-weight:bold;font-stretch:normal;font-size:18.6667px;font-family:Cochineal;-inkscape-font-specification:'Cochineal Bold'">3. Chicontepec
</tspan></tspan><tspan
             x="287.32422"
             y="810.35058"><tspan
               style="font-style:normal;font-variant:normal;font-weight:bold;font-stretch:normal;font-size:18.6667px;font-family:Cochineal;-inkscape-font-specification:'Cochineal Bold'">4. Tuxpan
</tspan></tspan><tspan
             x="287.32422"
             y="833.68396"><tspan
               style="font-style:normal;font-variant:normal;font-weight:bold;font-stretch:normal;font-size:18.6667px;font-family:Cochineal;-inkscape-font-specification:'Cochineal Bold'">5. Papantla
</tspan></tspan><tspan
             x="287.32422"
             y="857.01733"><tspan
               style="font-style:normal;font-variant:normal;font-weight:bold;font-stretch:normal;font-size:18.6667px;font-family:Cochineal;-inkscape-font-specification:'Cochineal Bold'">6. Jalacingo
</tspan></tspan><tspan
             x="287.32422"
             y="880.3507"><tspan
               style="font-style:normal;font-variant:normal;font-weight:bold;font-stretch:normal;font-size:18.6667px;font-family:Cochineal;-inkscape-font-specification:'Cochineal Bold'">7. Misantla
</tspan></tspan><tspan
             x="287.32422"
             y="903.68408"><tspan
               style="font-style:normal;font-variant:normal;font-weight:bold;font-stretch:normal;font-size:18.6667px;font-family:Cochineal;-inkscape-font-specification:'Cochineal Bold'">8. Jalapa
</tspan></tspan><tspan
             x="287.32422"
             y="927.01745"><tspan
               style="font-style:normal;font-variant:normal;font-weight:bold;font-stretch:normal;font-size:18.6667px;font-family:Cochineal;-inkscape-font-specification:'Cochineal Bold'">9. Coatepec
</tspan></tspan><tspan
             x="287.32422"
             y="950.35083"><tspan
               style="font-style:normal;font-variant:normal;font-weight:bold;font-stretch:normal;font-size:18.6667px;font-family:Cochineal;-inkscape-font-specification:'Cochineal Bold'">10. Huatusco
</tspan></tspan><tspan
             x="287.32422"
             y="973.6842"><tspan
               style="font-style:normal;font-variant:normal;font-weight:bold;font-stretch:normal;font-size:18.6667px;font-family:Cochineal;-inkscape-font-specification:'Cochineal Bold'">11. Veracruz
</tspan></tspan><tspan
             x="287.32422"
             y="997.01757"><tspan
               style="font-style:normal;font-variant:normal;font-weight:bold;font-stretch:normal;font-size:18.6667px;font-family:Cochineal;-inkscape-font-specification:'Cochineal Bold'">12. Crdoba
</tspan></tspan><tspan
             x="287.32422"
             y="1020.3509"><tspan
               style="font-style:normal;font-variant:normal;font-weight:bold;font-stretch:normal;font-size:18.6667px;font-family:Cochineal;-inkscape-font-specification:'Cochineal Bold'">13. Orizaba
</tspan></tspan><tspan
             x="287.32422"
             y="1043.6843"><tspan
               style="font-style:normal;font-variant:normal;font-weight:bold;font-stretch:normal;font-size:18.6667px;font-family:Cochineal;-inkscape-font-specification:'Cochineal Bold'">14. Zongolica
</tspan></tspan><tspan
             x="287.32422"
             y="1067.0177"><tspan
               style="font-style:normal;font-variant:normal;font-weight:bold;font-stretch:normal;font-size:18.6667px;font-family:Cochineal;-inkscape-font-specification:'Cochineal Bold'">15. Cosamaloapan
</tspan></tspan><tspan
             x="287.32422"
             y="1090.3511"><tspan
               style="font-style:normal;font-variant:normal;font-weight:bold;font-stretch:normal;font-size:18.6667px;font-family:Cochineal;-inkscape-font-specification:'Cochineal Bold'">16. Acayucan
</tspan></tspan><tspan
             x="287.32422"
             y="1113.6844"><tspan
               style="font-style:normal;font-variant:normal;font-weight:bold;font-stretch:normal;font-size:18.6667px;font-family:Cochineal;-inkscape-font-specification:'Cochineal Bold'">17. Minatitln
</tspan></tspan><tspan
             x="287.32422"
             y="1137.0178"><tspan
               style="font-style:normal;font-variant:normal;font-weight:bold;font-stretch:normal;font-size:18.6667px;font-family:Cochineal;-inkscape-font-specification:'Cochineal Bold'">18. Los tuxtlas</tspan></tspan></text>
        <text
           xml:space="preserve"
           id="text1383-23-3"
           style="font-style:normal;font-variant:normal;font-weight:bold;font-stretch:normal;font-size:18.6667px;line-height:1.25;font-family:Cochineal;-inkscape-font-specification:'Cochineal Bold';letter-spacing:0.5px;word-spacing:0.5px;white-space:pre;shape-inside:url(#rect1385-08-8);"
           transform="translate(-307.73378,-485.23102)"><tspan
             x="287.32422"
             y="717.01709"><tspan
               style="font-size:18.6667px">CANTONES</tspan></tspan></text>
      </g>
    </g>
  </g>
</svg>
